<svg xmlns="http://www.w3.org/2000/svg" viewBox="0 0 174.29 770.55"><defs><style>.cls-1{opacity:0.7;}.cls-2,.cls-3{fill:none;}.cls-2,.cls-3,.cls-4{stroke:#00af4c;stroke-miterlimit:10;}.cls-2{stroke-width:2.83px;}.cls-3{stroke-width:1.42px;}.cls-4{fill:#00af4c;}</style></defs><title>Fichier 2</title><g id="Calque_2" data-name="Calque 2"><g id="Profondeur"><g class="cls-1"><path class="cls-2" d="M174.29,11.39H148.8"/><path class="cls-3" d="M174.29,24.74h-16.1"/><path class="cls-3" d="M174.29,38.16h-16.1"/><path class="cls-3" d="M174.29,51.57h-16.1"/><path class="cls-3" d="M174.29,132.07h-16.1"/><path class="cls-3" d="M174.29,145.48h-16.1"/><path class="cls-3" d="M174.29,65h-16.1"/><path class="cls-3" d="M174.29,78.41h-16.1"/><path class="cls-3" d="M174.29,91.82h-16.1"/><path class="cls-3" d="M174.29,105.24h-16.1"/><path class="cls-3" d="M174.29,118.65h-16.1"/><path class="cls-2" d="M174.29,159H148.8"/><path class="cls-3" d="M174.29,172.31h-16.1"/><path class="cls-3" d="M174.29,185.73h-16.1"/><path class="cls-3" d="M174.29,199.14h-16.1"/><path class="cls-3" d="M174.29,279.63h-16.1"/><path class="cls-3" d="M174.29,293.05h-16.1"/><path class="cls-3" d="M174.29,212.56h-16.1"/><path class="cls-3" d="M174.29,226h-16.1"/><path class="cls-3" d="M174.29,239.39h-16.1"/><path class="cls-3" d="M174.29,252.8h-16.1"/><path class="cls-3" d="M174.29,266.22h-16.1"/><path class="cls-2" d="M174.29,306.52H148.8"/><path class="cls-3" d="M174.29,319.88h-16.1"/><path class="cls-3" d="M174.29,333.29h-16.1"/><path class="cls-3" d="M174.29,346.71h-16.1"/><path class="cls-3" d="M174.29,427.2h-16.1"/><path class="cls-3" d="M174.29,440.62h-16.1"/><path class="cls-3" d="M174.29,360.12h-16.1"/><path class="cls-3" d="M174.29,373.54h-16.1"/><path class="cls-3" d="M174.29,387h-16.1"/><path class="cls-3" d="M174.29,400.37h-16.1"/><path class="cls-3" d="M174.29,413.78h-16.1"/><path class="cls-2" d="M174.29,454.09H148.8"/><path class="cls-3" d="M174.29,467.45h-16.1"/><path class="cls-3" d="M174.29,480.86h-16.1"/><path class="cls-3" d="M174.29,494.28h-16.1"/><path class="cls-3" d="M174.29,574.77h-16.1"/><path class="cls-3" d="M174.29,588.18h-16.1"/><path class="cls-3" d="M174.29,601.6h-16.1"/><path class="cls-3" d="M174.29,507.69h-16.1"/><path class="cls-3" d="M174.29,521.11h-16.1"/><path class="cls-3" d="M174.29,534.52h-16.1"/><path class="cls-3" d="M174.29,547.94h-16.1"/><path class="cls-3" d="M174.29,561.35h-16.1"/><path class="cls-2" d="M174.29,601.66H148.8"/><path class="cls-2" d="M174.29,762.64H148.8"/><path class="cls-3" d="M174.29,615h-16.1"/><path class="cls-3" d="M174.29,628.43h-16.1"/><path class="cls-3" d="M174.29,641.84h-16.1"/><path class="cls-3" d="M174.29,722.33h-16.1"/><path class="cls-3" d="M174.29,735.75h-16.1"/><path class="cls-3" d="M174.29,749.16h-16.1"/><path class="cls-3" d="M174.29,655.26h-16.1"/><path class="cls-3" d="M174.29,668.67h-16.1"/><path class="cls-3" d="M174.29,682.09h-16.1"/><path class="cls-3" d="M174.29,695.5h-16.1"/><path class="cls-3" d="M174.29,708.92h-16.1"/><path class="cls-4" d="M91.2,18.68a7.7,7.7,0,0,1-2.79-3.33,12.2,12.2,0,0,1-1-5.19,12.2,12.2,0,0,1,1-5.19A7.7,7.7,0,0,1,91.2,1.64a7.69,7.69,0,0,1,8.06,0A7.67,7.67,0,0,1,102.07,5a12.2,12.2,0,0,1,1,5.19,12.2,12.2,0,0,1-1,5.19,7.67,7.67,0,0,1-2.81,3.33,7.69,7.69,0,0,1-8.06,0Zm7.21-3.56a8.71,8.71,0,0,0,1.16-5,8.69,8.69,0,0,0-1.16-5,3.84,3.84,0,0,0-6.34,0,8.61,8.61,0,0,0-1.16,5,8.63,8.63,0,0,0,1.16,5,3.84,3.84,0,0,0,6.34,0Z"/><path class="cls-4" d="M136.25,6.63a6.39,6.39,0,0,1,1.58,4.7v8.22h-3.35s0-5.84,0-7.78a4.16,4.16,0,0,0-.84-2.83A2.94,2.94,0,0,0,131.25,8a3.51,3.51,0,0,0-2.7,1.11,4.53,4.53,0,0,0-1,3.18v7.27h-3.35s0-5.84,0-7.78a4.11,4.11,0,0,0-.83-2.83,3,3,0,0,0-2.4-.95,3.51,3.51,0,0,0-2.71,1.1,4.6,4.6,0,0,0-1,3.19c0,1.82,0,7.27,0,7.27h-3.36V5.22h3.19V7.05a5.18,5.18,0,0,1,2-1.48,6.76,6.76,0,0,1,2.69-.51,6.44,6.44,0,0,1,2.85.61,4.58,4.58,0,0,1,2,1.78,6,6,0,0,1,2.28-1.76A7.42,7.42,0,0,1,132,5.06,5.87,5.87,0,0,1,136.25,6.63Z"/><path class="cls-4" d="M.5,760.27H8.41v3H.5Z"/><path class="cls-4" d="M32,759.84a5.44,5.44,0,0,1,1.47,3.88,6.06,6.06,0,0,1-.89,3.19,6.24,6.24,0,0,1-2.68,2.28,10.37,10.37,0,0,1-4.36.85,13.41,13.41,0,0,1-4.18-.62A10.45,10.45,0,0,1,18,767.71l1.61-2.9a8,8,0,0,0,2.67,1.45,9.63,9.63,0,0,0,3.25.53,5.31,5.31,0,0,0,3.1-.82,2.62,2.62,0,0,0,1.13-2.22,2.56,2.56,0,0,0-1.08-2.2,5.54,5.54,0,0,0-3.29-.79H23.5V758.2l4.57-5.44H18.93v-3.13H32.64v2.5l-4.88,5.81A6.77,6.77,0,0,1,32,759.84Z"/><path class="cls-4" d="M47.92,768.83a8.23,8.23,0,0,1-3-3.57,14.6,14.6,0,0,1,0-11.12,8.23,8.23,0,0,1,3-3.57,7.81,7.81,0,0,1,4.31-1.22,7.92,7.92,0,0,1,4.33,1.22,8.25,8.25,0,0,1,3,3.57,14.73,14.73,0,0,1,0,11.12,8.25,8.25,0,0,1-3,3.57,7.92,7.92,0,0,1-4.33,1.22A7.81,7.81,0,0,1,47.92,768.83ZM55.64,765a11.95,11.95,0,0,0,0-10.64,4.13,4.13,0,0,0-6.79,0,11.95,11.95,0,0,0,0,10.64,4.13,4.13,0,0,0,6.79,0Z"/><path class="cls-4" d="M67.27,768.83a8.16,8.16,0,0,1-3-3.57,14.6,14.6,0,0,1,0-11.12,8.16,8.16,0,0,1,3-3.57,7.81,7.81,0,0,1,4.31-1.22,7.92,7.92,0,0,1,4.33,1.22,8.25,8.25,0,0,1,3,3.57,14.73,14.73,0,0,1,0,11.12,8.25,8.25,0,0,1-3,3.57,7.92,7.92,0,0,1-4.33,1.22A7.81,7.81,0,0,1,67.27,768.83ZM75,765a11.95,11.95,0,0,0,0-10.64,4,4,0,0,0-3.41-1.78,3.91,3.91,0,0,0-3.38,1.78,11.95,11.95,0,0,0,0,10.64A4.13,4.13,0,0,0,75,765Z"/><path class="cls-4" d="M86.61,768.83a8.3,8.3,0,0,1-3-3.57,14.73,14.73,0,0,1,0-11.12,8.3,8.3,0,0,1,3-3.57,8.26,8.26,0,0,1,8.64,0,8.2,8.2,0,0,1,3,3.57,14.73,14.73,0,0,1,0,11.12,8.2,8.2,0,0,1-3,3.57,8.26,8.26,0,0,1-8.64,0ZM94.33,765a11.95,11.95,0,0,0,0-10.64,4.12,4.12,0,0,0-6.78,0,11.95,11.95,0,0,0,0,10.64,4.12,4.12,0,0,0,6.78,0Z"/><path class="cls-4" d="M134.91,755.91a6.84,6.84,0,0,1,1.69,5v8.81H133s0-6.25,0-8.33a4.49,4.49,0,0,0-.9-3,3.16,3.16,0,0,0-2.56-1,3.79,3.79,0,0,0-2.9,1.2,4.94,4.94,0,0,0-1.09,3.4c0,1.95,0,7.79,0,7.79H122s0-6.25,0-8.33a4.49,4.49,0,0,0-.9-3,3.18,3.18,0,0,0-2.57-1,3.8,3.8,0,0,0-2.9,1.18,5,5,0,0,0-1.08,3.42c0,1.95,0,7.79,0,7.79h-3.59V754.4h3.42v2a5.47,5.47,0,0,1,2.16-1.58,7.11,7.11,0,0,1,2.88-.55,7,7,0,0,1,3,.65,4.87,4.87,0,0,1,2.11,1.91,6.39,6.39,0,0,1,2.45-1.88,7.81,7.81,0,0,1,3.31-.68A6.26,6.26,0,0,1,134.91,755.91Z"/></g></g></g></svg>