<svg xmlns="http://www.w3.org/2000/svg" viewBox="0 0 429.45 429.45"><defs><style>.cls-1{opacity:0.7;}.cls-2{fill:#00af4c;}.cls-3{fill:none;}</style></defs><title>Fichier 1</title><g id="Calque_2" data-name="Calque 2"><g id="Radar"><g class="cls-1"><path d="M27.57,214.73C27.57,318,111.59,402,214.86,402s187.29-84,187.29-187.28-84-187.29-187.29-187.29S27.57,111.46,27.57,214.73Z"/><path class="cls-2" d="M225.08,0h-.23l-.45,0-1.05,22.39h.34l.35,0v-.24Z"/><polygon class="cls-2" points="205.41 407.06 205.4 407.29 204.37 429.42 205.06 429.45 206.1 407.09 205.81 407.08 205.41 407.06"/><polygon class="cls-2" points="157.69 30.78 157.62 30.56 151.03 9.44 150.81 9.51 150.37 9.64 157.03 30.98 157.69 30.78"/><polygon class="cls-2" points="272.2 398.56 271.85 398.67 271.84 398.91 278.42 420.02 279.08 419.81 272.43 398.49 272.2 398.56"/><polygon class="cls-2" points="303.25 385.76 302.84 385.98 302.94 386.18 313.1 405.84 313.71 405.52 303.45 385.66 303.25 385.76"/><polygon class="cls-2" points="116.35 23.61 116.14 23.72 115.74 23.93 126.01 43.82 126.62 43.49 126.52 43.29 116.35 23.61"/><polygon class="cls-2" points="98.25 61.42 84.66 43.6 84.47 43.74 84.11 44.02 97.7 61.84 98.25 61.42"/><polygon class="cls-2" points="331.58 367.77 331.21 368.04 344.8 385.85 345.34 385.44 331.76 367.63 331.58 367.77"/><polygon class="cls-2" points="356.38 345.15 356.06 345.49 372.53 360.67 373 360.16 356.53 344.98 356.38 345.15"/><polygon class="cls-2" points="56.76 68.96 56.45 69.3 72.93 84.48 73.4 83.98 56.92 68.79 56.76 68.96"/><polygon class="cls-2" points="376.85 318.66 376.65 318.97 376.85 319.1 395.48 331.05 395.85 330.46 377.03 318.39 376.85 318.66"/><polygon class="cls-2" points="33.97 98.41 33.85 98.6 33.6 98.99 52.43 111.06 52.81 110.49 52.62 110.36 33.97 98.41"/><polygon class="cls-2" points="37.13 140.22 36.92 140.13 18.59 132.47 18.5 132.68 18.32 133.11 36.87 140.85 37.13 140.22"/><polygon class="cls-2" points="392.47 288.89 392.32 289.26 392.51 289.41 414.99 298.8 415.26 298.16 392.56 288.68 392.47 288.89"/><polygon class="cls-2" points="26.96 171.94 26.74 171.88 6.37 167.31 6.32 167.53 6.22 167.98 26.82 172.61 26.96 171.94"/><polygon class="cls-2" points="402.68 256.64 402.58 257.09 425.64 262.27 425.79 261.6 402.73 256.41 402.68 256.64"/><polygon class="cls-2" points="190.5 23.69 190.47 23.46 187.65 1.5 187.42 1.52 186.96 1.58 189.82 23.78 190.5 23.69"/><polygon class="cls-2" points="239.41 405.73 239.03 405.77 238.98 406.01 241.81 427.96 242.49 427.87 239.64 405.7 239.41 405.73"/><path class="cls-2" d="M22.39,205.77c0-.06,0-.36,0-.36h-.24L0,204.37l0,.69,22.37,1Z"/><path class="cls-2" d="M429.22,224.39l-22.14-1,0,.36s0,.34,0,.34h.24l22.14,1,0-.69Z"/><polygon class="cls-2" points="30.77 271.76 30.55 271.83 9.44 278.43 9.64 279.08 30.97 272.43 30.77 271.76"/><polygon class="cls-2" points="398.65 157.6 398.9 157.62 420.02 151.03 419.81 150.37 419.59 150.44 398.48 157.03 398.65 157.6"/><polygon class="cls-2" points="386.16 126.52 405.83 116.35 405.52 115.74 405.31 115.84 385.64 126.01 385.96 126.62 386.16 126.52"/><polygon class="cls-2" points="43.28 302.94 23.62 313.1 23.93 313.72 43.8 303.45 43.48 302.84 43.28 302.94"/><polygon class="cls-2" points="61.23 331.36 43.6 344.8 44.02 345.35 61.83 331.76 61.41 331.22 61.23 331.36"/><polygon class="cls-2" points="385.85 84.66 385.43 84.11 385.25 84.25 367.61 97.7 368.03 98.25 385.85 84.66"/><polygon class="cls-2" points="110.35 376.85 98.41 395.48 98.99 395.85 111.06 377.03 110.53 376.69 110.35 376.85"/><polygon class="cls-2" points="330.34 33.8 318.39 52.44 318.96 52.82 319.09 52.62 331.04 33.98 330.46 33.6 330.34 33.8"/><polygon class="cls-2" points="83.89 356.31 67.07 374.56 67.58 375.03 84.55 356.61 84.05 356.14 83.89 356.31"/><polygon class="cls-2" points="345.71 73.3 358.94 58.95 358.44 58.48 358.28 58.65 345.05 73 345.56 73.47 345.71 73.3"/><polygon class="cls-2" points="297.07 18.57 289.3 37.16 289.94 37.44 290.02 37.22 297.79 18.63 297.16 18.36 297.07 18.57"/><polygon class="cls-2" points="140.75 392.81 131.47 415.03 132.1 415.3 141.48 392.85 140.84 392.6 140.75 392.81"/><polygon class="cls-2" points="172.31 402.82 167.18 425.64 167.86 425.8 173.04 402.74 172.37 402.6 172.31 402.82"/><polygon class="cls-2" points="261.43 6.45 256.84 26.83 257.51 26.97 257.57 26.75 262.15 6.37 261.48 6.22 261.43 6.45"/><polygon class="cls-2" points="23.68 238.95 23.45 238.99 1.5 241.81 1.58 242.49 23.77 239.64 23.68 238.95"/><polygon class="cls-2" points="405.76 190.42 405.99 190.47 427.96 187.65 427.87 186.96 427.64 186.99 405.68 189.82 405.76 190.42"/><polygon class="cls-2" points="222.7 407.12 222.25 407.14 222.63 416.58 223.31 416.55 222.93 407.11 222.7 407.12"/><polygon class="cls-2" points="207.27 22.34 206.89 12.96 206.66 12.96 206.22 12.98 206.6 22.36 207.27 22.34"/><polygon class="cls-2" points="141.89 36.46 138.34 27.82 138.13 27.91 137.72 28.08 141.27 36.72 141.89 36.46"/><polygon class="cls-2" points="288.01 392.83 287.61 393 287.69 393.21 291.18 401.72 291.81 401.46 288.23 392.74 288.01 392.83"/><polygon class="cls-2" points="317.81 377.38 317.43 377.62 317.55 377.81 322.49 385.61 323.06 385.24 318 377.26 317.81 377.38"/><polygon class="cls-2" points="112.05 51.84 107.04 43.93 106.84 44.05 106.47 44.29 111.48 52.2 112.05 51.84"/><polygon class="cls-2" points="344.47 357.01 344.15 357.31 350.51 364.3 351.01 363.85 344.64 356.85 344.47 357.01"/><polygon class="cls-2" points="85.32 72.16 79.01 65.23 78.84 65.39 78.51 65.69 84.82 72.61 85.32 72.16"/><polygon class="cls-2" points="62.51 96.8 62.33 96.66 55.11 91.08 54.97 91.26 54.69 91.61 62.11 97.33 62.51 96.8"/><polygon class="cls-2" points="367.21 332.33 366.93 332.68 374.42 338.46 374.83 337.93 367.35 332.15 367.21 332.33"/><polygon class="cls-2" points="393.47 308.85 393.79 308.26 385.43 303.88 385.33 304.08 385.12 304.48 393.47 308.85"/><polygon class="cls-2" points="35.95 120.88 35.74 121.28 44.01 125.61 44.32 125.01 36.05 120.68 35.95 120.88"/><polygon class="cls-2" points="24.44 153.82 24.36 154.04 24.23 154.47 31.11 156.66 31.31 156.01 24.44 153.82"/><polygon class="cls-2" points="398.32 273.64 409.1 277.07 409.31 276.43 398.31 272.93 398.22 273.18 398.1 273.57 398.32 273.64"/><polygon class="cls-2" points="405.52 240.59 416.08 242.01 416.17 241.34 405.62 239.92 405.58 240.15 405.52 240.59"/><polygon class="cls-2" points="15.85 187.43 15.82 187.66 15.76 188.1 23.88 189.19 23.97 188.52 15.85 187.43"/><polygon class="cls-2" points="173.94 26.52 173.91 26.29 171.97 17.39 171.74 17.44 171.31 17.53 173.3 26.66 173.94 26.52"/><polygon class="cls-2" points="255.98 402.85 255.55 402.95 257.56 412.14 258.22 412 256.21 402.8 255.98 402.85"/><polygon class="cls-2" points="22.1 222.27 12.95 222.64 12.98 223.31 22.36 222.93 22.33 222.26 22.1 222.27"/><polygon class="cls-2" points="416.55 206.22 416.32 206.23 407.1 206.6 407.13 207.28 416.57 206.9 416.55 206.22"/><polygon class="cls-2" points="401.71 138.35 401.45 137.72 401.24 137.81 392.75 141.3 393.01 141.92 401.71 138.35"/><polygon class="cls-2" points="27.82 291.19 28.07 291.81 36.73 288.26 36.47 287.63 36.26 287.72 27.82 291.19"/><polygon class="cls-2" points="377.63 112.08 385.6 107.04 385.24 106.47 385.05 106.6 377.28 111.51 377.63 112.08"/><polygon class="cls-2" points="51.86 317.47 51.67 317.59 43.93 322.49 44.29 323.06 52.23 318.04 51.86 317.47"/><polygon class="cls-2" points="72.18 344.19 72.01 344.34 65.23 350.52 65.68 351.02 72.64 344.68 72.18 344.19"/><polygon class="cls-2" points="357.33 85.36 357.5 85.2 364.3 79.02 363.85 78.51 363.68 78.67 356.88 84.86 357.33 85.36"/><polygon class="cls-2" points="124.93 385.37 120.67 393.48 121.27 393.79 125.63 385.47 125.04 385.16 124.93 385.37"/><polygon class="cls-2" points="308.14 35.95 303.9 44.04 304.5 44.36 308.85 36.06 308.25 35.74 308.14 35.95"/><polygon class="cls-2" points="96.76 367.22 89.63 376.46 90.16 376.87 97.44 367.45 96.9 367.04 96.76 367.22"/><polygon class="cls-2" points="332.93 62.44 337.01 57.15 336.48 56.74 336.34 56.92 332.25 62.21 332.79 62.62 332.93 62.44"/><polygon class="cls-2" points="275.76 24.42 273.55 31.36 274.19 31.56 276.47 24.41 275.82 24.2 275.76 24.42"/><polygon class="cls-2" points="156.56 398.57 153.22 409.08 153.86 409.28 157.28 398.56 156.63 398.35 156.56 398.57"/><polygon class="cls-2" points="188.91 405.78 187.52 416.08 188.19 416.17 189.61 405.64 188.94 405.55 188.91 405.78"/><polygon class="cls-2" points="241.4 15.99 240.34 23.9 241.01 23.99 242.1 15.86 241.43 15.77 241.4 15.99"/><polygon class="cls-2" points="17.53 258.23 26.67 256.23 26.52 255.57 26.3 255.62 17.39 257.56 17.53 258.23"/><polygon class="cls-2" points="403.17 173.93 412.14 171.97 412 171.31 411.77 171.36 402.8 173.32 402.94 173.98 403.17 173.93"/><path class="cls-2" d="M234.75.72l-.23,0-.46,0L232,23l.34,0,.35,0,0-.23Z"/><polygon class="cls-2" points="196.75 406.44 196.73 406.67 194.71 428.74 195.39 428.8 197.44 406.51 197.15 406.49 196.75 406.44"/><polygon class="cls-2" points="166.04 28.4 165.98 28.17 160.34 6.77 160.12 6.83 159.68 6.95 165.37 28.57 166.04 28.4"/><polygon class="cls-2" points="263.86 400.96 263.5 401.05 263.48 401.3 269.11 422.68 269.77 422.5 264.09 400.91 263.86 400.96"/><polygon class="cls-2" points="295.45 389.58 295.03 389.77 295.13 389.98 304.39 410.08 305.02 409.79 295.66 389.48 295.45 389.58"/><polygon class="cls-2" points="125.06 19.38 124.85 19.47 124.43 19.67 133.8 39.99 134.42 39.7 134.33 39.49 125.06 19.38"/><polygon class="cls-2" points="105.27 56.33 92.5 37.91 92.31 38.05 91.93 38.31 104.71 56.72 105.27 56.33"/><polygon class="cls-2" points="324.57 372.88 324.19 373.14 336.95 391.54 337.52 391.15 324.76 372.74 324.57 372.88"/><polygon class="cls-2" points="350.36 351.4 350.03 351.72 365.8 367.63 366.29 367.14 350.52 351.24 350.36 351.4"/><polygon class="cls-2" points="63.49 61.99 63.16 62.31 78.94 78.23 79.43 77.74 63.65 61.83 63.49 61.99"/><polygon class="cls-2" points="372.01 325.86 371.79 326.16 371.98 326.29 390.05 339.07 390.45 338.51 372.19 325.6 372.01 325.86"/><polygon class="cls-2" points="39.4 90.38 39.27 90.57 39 90.94 57.27 103.86 57.67 103.3 57.48 103.16 39.4 90.38"/><polygon class="cls-2" points="40.66 132.29 40.46 132.19 22.49 123.72 22.39 123.92 22.2 124.34 40.38 132.91 40.66 132.29"/><polygon class="cls-2" points="388.95 296.82 388.79 297.19 388.96 297.34 411 307.74 411.3 307.11 389.05 296.62 388.95 296.82"/><polygon class="cls-2" points="29.08 163.52 28.86 163.46 8.72 157.97 8.66 158.19 8.54 158.63 28.91 164.18 29.08 163.52"/><polygon class="cls-2" points="400.6 265.06 400.49 265.51 423.29 271.72 423.47 271.06 400.66 264.84 400.6 265.06"/><polygon class="cls-2" points="199.13 22.8 199.11 22.57 197.28 0.49 197.05 0.51 196.59 0.55 198.44 22.85 199.13 22.8"/><polygon class="cls-2" points="230.78 406.64 230.4 406.67 230.34 406.91 232.17 428.96 232.86 428.91 231.01 406.63 230.78 406.64"/><path class="cls-2" d="M23,197.11c0-.06,0-.36,0-.36h-.23l-22.07-2-.07.68L23,197.44Z"/><path class="cls-2" d="M428.57,234l-22.08-2,0,.35s0,.34,0,.34l.23,0,22.08,2,.06-.69Z"/><polygon class="cls-2" points="28.39 263.42 28.16 263.48 6.78 269.11 6.95 269.77 28.55 264.09 28.39 263.42"/><polygon class="cls-2" points="401.04 165.95 401.28 165.97 422.68 160.34 422.5 159.68 422.28 159.74 400.89 165.37 401.04 165.95"/><polygon class="cls-2" points="389.96 134.33 410.07 125.06 409.78 124.43 409.58 124.53 389.46 133.8 389.75 134.42 389.96 134.33"/><polygon class="cls-2" points="39.48 295.13 19.38 304.39 19.67 305.02 39.98 295.66 39.69 295.04 39.48 295.13"/><polygon class="cls-2" points="56.13 324.32 37.92 336.95 38.31 337.52 56.71 324.75 56.32 324.19 56.13 324.32"/><polygon class="cls-2" points="391.53 92.5 391.14 91.93 390.95 92.06 372.73 104.71 373.12 105.27 391.53 92.5"/><polygon class="cls-2" points="103.16 371.98 90.38 390.05 90.94 390.45 103.85 372.2 103.34 371.83 103.16 371.98"/><polygon class="cls-2" points="338.38 39.19 325.59 57.27 326.15 57.68 326.29 57.48 339.07 39.4 338.51 39 338.38 39.19"/><polygon class="cls-2" points="77.65 350.27 60.02 367.75 60.51 368.24 78.29 350.6 77.81 350.11 77.65 350.27"/><polygon class="cls-2" points="351.95 79.35 365.82 65.6 365.33 65.11 365.17 65.27 351.3 79.02 351.79 79.51 351.95 79.35"/><polygon class="cls-2" points="305.82 22.48 297.23 40.7 297.85 41 297.94 40.79 306.54 22.57 305.92 22.27 305.82 22.48"/><polygon class="cls-2" points="132.8 389.29 122.52 411.08 123.15 411.37 133.53 389.37 132.9 389.09 132.8 389.29"/><polygon class="cls-2" points="163.88 400.72 157.73 423.29 158.39 423.47 164.61 400.67 163.95 400.5 163.88 400.72"/><polygon class="cls-2" points="270.76 8.76 265.26 28.91 265.93 29.09 265.99 28.87 271.49 8.72 270.82 8.54 270.76 8.76"/><polygon class="cls-2" points="22.79 230.32 22.55 230.34 0.49 232.17 0.55 232.86 22.84 231.01 22.79 230.32"/><polygon class="cls-2" points="406.66 199.05 406.89 199.11 428.96 197.28 428.9 196.59 428.68 196.61 406.61 198.45 406.66 199.05"/><polygon class="cls-2" points="214.02 407.28 213.58 407.28 213.53 416.73 214.21 416.73 214.25 407.28 214.02 407.28"/><polygon class="cls-2" points="215.95 22.19 215.99 12.81 215.76 12.81 215.31 12.8 215.27 22.19 215.95 22.19"/><polygon class="cls-2" points="150 33.36 146.84 24.57 146.62 24.64 146.2 24.8 149.36 33.59 150 33.36"/><polygon class="cls-2" points="279.92 395.95 279.5 396.1 279.58 396.32 282.68 404.97 283.32 404.74 280.13 395.87 279.92 395.95"/><polygon class="cls-2" points="310.38 381.86 309.98 382.08 310.1 382.28 314.68 390.29 315.26 389.95 310.58 381.74 310.38 381.86"/><polygon class="cls-2" points="119.49 47.38 114.84 39.25 114.64 39.36 114.26 39.59 118.9 47.71 119.49 47.38"/><polygon class="cls-2" points="337.93 362.71 337.59 362.99 343.64 370.27 344.16 369.84 338.1 362.56 337.93 362.71"/><polygon class="cls-2" points="91.88 66.47 85.88 59.27 85.71 59.41 85.36 59.7 91.36 66.9 91.88 66.47"/><polygon class="cls-2" points="67.98 90.06 67.81 89.91 60.84 84.01 60.69 84.19 60.4 84.52 67.55 90.57 67.98 90.06"/><polygon class="cls-2" points="361.75 339.08 361.46 339.42 368.68 345.53 369.12 345.01 361.9 338.9 361.75 339.08"/><polygon class="cls-2" points="389.05 316.81 389.39 316.23 381.24 311.48 381.13 311.68 380.9 312.06 389.05 316.81"/><polygon class="cls-2" points="40.36 112.92 40.13 113.31 48.2 118.01 48.54 117.43 40.47 112.72 40.36 112.92"/><polygon class="cls-2" points="27.37 145.31 27.29 145.53 27.14 145.94 33.91 148.44 34.15 147.81 27.37 145.31"/><polygon class="cls-2" points="395.48 281.85 406.1 285.77 406.33 285.13 395.5 281.14 395.4 281.39 395.26 281.78 395.48 281.85"/><polygon class="cls-2" points="404.17 249.16 414.65 251.06 414.76 250.39 404.29 248.49 404.25 248.72 404.17 249.16"/><polygon class="cls-2" points="17.29 178.49 17.25 178.72 17.17 179.16 25.23 180.62 25.35 179.95 17.29 178.49"/><polygon class="cls-2" points="182.46 24.87 182.44 24.64 180.9 15.66 180.67 15.7 180.23 15.78 181.82 24.98 182.46 24.87"/><polygon class="cls-2" points="247.47 404.52 247.03 404.6 248.62 413.87 249.29 413.76 247.69 404.48 247.47 404.52"/><polygon class="cls-2" points="21.95 213.58 12.8 213.54 12.8 214.21 22.18 214.26 22.18 213.58 21.95 213.58"/><polygon class="cls-2" points="416.73 215.32 416.5 215.32 407.27 215.28 407.27 215.96 416.72 216 416.73 215.32"/><polygon class="cls-2" points="404.96 146.85 404.73 146.21 404.52 146.29 395.88 149.39 396.11 150.03 404.96 146.85"/><polygon class="cls-2" points="24.56 282.69 24.79 283.32 33.6 280.16 33.37 279.52 33.15 279.6 24.56 282.69"/><polygon class="cls-2" points="382.09 119.53 390.28 114.85 389.94 114.26 389.74 114.38 381.76 118.94 382.09 119.53"/><polygon class="cls-2" points="47.4 310.02 47.2 310.14 39.24 314.69 39.58 315.27 47.73 310.61 47.4 310.02"/><polygon class="cls-2" points="66.49 337.64 66.32 337.78 59.26 343.65 59.69 344.17 66.93 338.15 66.49 337.64"/><polygon class="cls-2" points="363.01 91.92 363.19 91.77 370.26 85.89 369.83 85.37 369.65 85.52 362.58 91.4 363.01 91.92"/><polygon class="cls-2" points="117.33 381.14 112.72 389.06 113.3 389.4 118.03 381.29 117.45 380.95 117.33 381.14"/><polygon class="cls-2" points="316.11 40.34 311.5 48.23 312.08 48.58 316.81 40.48 316.22 40.14 316.11 40.34"/><polygon class="cls-2" points="90.01 361.75 82.47 370.66 82.98 371.1 90.68 362.01 90.16 361.58 90.01 361.75"/><polygon class="cls-2" points="339.67 67.92 343.99 62.81 343.47 62.38 343.32 62.56 339 67.66 339.52 68.09 339.67 67.92"/><polygon class="cls-2" points="284.27 27.36 281.75 34.19 282.38 34.43 284.98 27.39 284.35 27.15 284.27 27.36"/><polygon class="cls-2" points="148.34 395.76 144.52 406.11 145.16 406.34 149.05 395.78 148.42 395.55 148.34 395.76"/><polygon class="cls-2" points="180.33 404.42 178.47 414.65 179.14 414.77 181.03 404.31 180.37 404.19 180.33 404.42"/><polygon class="cls-2" points="250.33 17.4 248.91 25.25 249.57 25.37 251.03 17.29 250.37 17.17 250.33 17.4"/><polygon class="cls-2" points="15.77 249.29 24.99 247.71 24.87 247.05 24.64 247.09 15.66 248.63 15.77 249.29"/><polygon class="cls-2" points="404.82 182.46 413.87 180.91 413.75 180.24 413.53 180.28 404.48 181.84 404.59 182.5 404.82 182.46"/><path class="cls-2" d="M230.6.37l-.23,0-.46,0-1.62,22.35.34,0,.35,0v-.23Z"/><polygon class="cls-2" points="200.47 406.76 200.46 406.99 198.86 429.09 199.54 429.13 201.16 406.81 200.87 406.79 200.47 406.76"/><polygon class="cls-2" points="162.44 29.38 162.37 29.15 156.32 7.87 156.1 7.93 155.66 8.06 161.77 29.56 162.44 29.38"/><polygon class="cls-2" points="267.46 399.98 267.11 400.08 267.09 400.32 273.13 421.59 273.79 421.4 267.69 399.92 267.46 399.98"/><polygon class="cls-2" points="298.82 387.98 298.41 388.19 298.51 388.39 308.16 408.3 308.78 408 299.03 387.88 298.82 387.98"/><polygon class="cls-2" points="121.29 21.15 121.08 21.25 120.67 21.45 130.43 41.59 131.05 41.29 130.95 41.08 121.29 21.15"/><polygon class="cls-2" points="102.22 58.48 89.1 40.32 88.91 40.45 88.54 40.72 101.67 58.89 102.22 58.48"/><polygon class="cls-2" points="327.61 370.72 327.24 370.99 340.36 389.14 340.91 388.73 327.8 370.58 327.61 370.72"/><polygon class="cls-2" points="352.98 348.75 352.66 349.07 368.73 364.67 369.21 364.18 353.14 348.58 352.98 348.75"/><polygon class="cls-2" points="60.56 64.95 60.24 65.28 76.32 80.88 76.8 80.39 60.72 64.78 60.56 64.95"/><polygon class="cls-2" points="374.13 322.79 373.92 323.1 374.11 323.23 392.43 335.65 392.82 335.08 374.31 322.53 374.13 322.79"/><polygon class="cls-2" points="37.02 93.81 36.9 93.99 36.64 94.37 55.15 106.93 55.54 106.36 55.35 106.23 37.02 93.81"/><polygon class="cls-2" points="39.1 135.68 38.89 135.59 20.77 127.46 20.67 127.67 20.48 128.09 38.82 136.31 39.1 135.68"/><polygon class="cls-2" points="390.51 293.43 390.35 293.8 390.53 293.95 412.77 303.92 413.05 303.29 390.6 293.23 390.51 293.43"/><polygon class="cls-2" points="28.12 167.13 27.9 167.07 7.66 161.97 7.6 162.19 7.49 162.64 27.96 167.79 28.12 167.13"/><polygon class="cls-2" points="401.54 261.45 401.44 261.9 424.35 267.67 424.52 267.01 401.6 261.23 401.54 261.45"/><polygon class="cls-2" points="195.42 23.14 195.39 22.91 193.13 0.87 192.91 0.89 192.45 0.94 194.73 23.2 195.42 23.14"/><polygon class="cls-2" points="234.49 406.3 234.12 406.33 234.06 406.57 236.32 428.59 237.01 428.51 234.72 406.28 234.49 406.3"/><path class="cls-2" d="M22.68,200.83c0-.06,0-.36,0-.36h-.23L.37,198.86l0,.68,22.34,1.62Z"/><path class="cls-2" d="M428.91,229.9l-22.12-1.61,0,.35c0,.05,0,.34,0,.34l.23,0,22.11,1.6.05-.69Z"/><polygon class="cls-2" points="29.36 267.02 29.14 267.09 7.87 273.13 8.06 273.79 29.55 267.69 29.36 267.02"/><polygon class="cls-2" points="400.06 162.35 400.3 162.37 421.59 156.32 421.4 155.66 421.18 155.73 399.9 161.77 400.06 162.35"/><polygon class="cls-2" points="388.37 130.95 408.3 121.29 408 120.67 407.79 120.77 387.86 130.43 388.17 131.05 388.37 130.95"/><polygon class="cls-2" points="41.07 298.51 21.15 308.16 21.45 308.78 41.58 299.03 41.28 298.41 41.07 298.51"/><polygon class="cls-2" points="58.28 327.37 40.32 340.36 40.72 340.92 58.88 327.8 58.47 327.24 58.28 327.37"/><polygon class="cls-2" points="389.13 89.1 388.73 88.54 388.54 88.67 370.57 101.67 370.97 102.22 389.13 89.1"/><polygon class="cls-2" points="106.22 374.12 93.8 392.43 94.37 392.82 106.92 374.32 106.4 373.96 106.22 374.12"/><polygon class="cls-2" points="334.95 36.83 322.52 55.15 323.09 55.55 323.22 55.35 335.65 37.02 335.08 36.63 334.95 36.83"/><polygon class="cls-2" points="80.3 352.9 63.02 370.72 63.51 371.19 80.95 353.23 80.46 352.74 80.3 352.9"/><polygon class="cls-2" points="349.3 76.72 362.9 62.7 362.41 62.22 362.25 62.39 348.65 76.4 349.14 76.88 349.3 76.72"/><polygon class="cls-2" points="302.08 20.75 293.84 39.13 294.47 39.43 294.56 39.21 302.8 20.82 302.18 20.54 302.08 20.75"/><polygon class="cls-2" points="136.2 390.85 126.35 412.83 126.98 413.11 136.93 390.91 136.29 390.64 136.2 390.85"/><polygon class="cls-2" points="167.5 401.67 161.78 424.35 162.45 424.52 168.22 401.61 167.56 401.45 167.5 401.67"/><polygon class="cls-2" points="266.76 7.71 261.66 27.97 262.32 28.13 262.38 27.91 267.49 7.66 266.82 7.49 266.76 7.71"/><polygon class="cls-2" points="23.13 234.04 22.89 234.06 0.87 236.32 0.94 237.01 23.19 234.72 23.13 234.04"/><polygon class="cls-2" points="406.32 195.34 406.56 195.39 428.58 193.13 428.51 192.45 428.29 192.47 406.26 194.73 406.32 195.34"/><polygon class="cls-2" points="217.75 407.26 217.31 407.27 217.45 416.72 218.12 416.71 217.98 407.26 217.75 407.26"/><polygon class="cls-2" points="212.22 22.21 212.08 12.82 211.85 12.82 211.4 12.83 211.54 22.22 212.22 22.21"/><polygon class="cls-2" points="146.5 34.65 143.17 25.92 142.95 26 142.54 26.16 145.86 34.89 146.5 34.65"/><polygon class="cls-2" points="283.42 394.65 283 394.81 283.08 395.03 286.35 403.62 286.99 403.38 283.63 394.57 283.42 394.65"/><polygon class="cls-2" points="313.6 379.97 313.21 380.2 313.33 380.4 318.06 388.32 318.64 387.97 313.8 379.86 313.6 379.97"/><polygon class="cls-2" points="116.27 49.26 111.46 41.22 111.27 41.34 110.88 41.57 115.69 49.6 116.27 49.26"/><polygon class="cls-2" points="340.77 360.3 340.44 360.59 346.63 367.74 347.14 367.3 340.95 360.14 340.77 360.3"/><polygon class="cls-2" points="89.03 68.88 82.9 61.79 82.72 61.94 82.39 62.23 88.52 69.32 89.03 68.88"/><polygon class="cls-2" points="65.59 92.93 65.42 92.78 58.34 87.02 58.19 87.2 57.91 87.54 65.17 93.45 65.59 92.93"/><polygon class="cls-2" points="364.14 336.2 363.85 336.55 371.19 342.52 371.61 342 364.28 336.03 364.14 336.2"/><polygon class="cls-2" points="391 313.42 391.33 312.83 383.09 308.24 382.98 308.44 382.76 308.82 391 313.42"/><polygon class="cls-2" points="38.42 116.32 38.2 116.71 46.35 121.26 46.68 120.67 38.53 116.12 38.42 116.32"/><polygon class="cls-2" points="26.06 148.96 25.99 149.17 25.84 149.59 32.66 151.96 32.88 151.32 26.06 148.96"/><polygon class="cls-2" points="396.75 278.34 407.44 282.05 407.66 281.41 396.75 277.63 396.66 277.88 396.53 278.27 396.75 278.34"/><polygon class="cls-2" points="404.8 245.48 415.32 247.18 415.42 246.51 404.91 244.82 404.87 245.04 404.8 245.48"/><polygon class="cls-2" points="16.62 182.33 16.59 182.56 16.52 183 24.6 184.3 24.71 183.63 16.62 182.33"/><polygon class="cls-2" points="178.79 25.54 178.77 25.31 177.05 16.36 176.82 16.4 176.39 16.48 178.15 25.66 178.79 25.54"/><polygon class="cls-2" points="251.14 403.85 250.7 403.94 252.47 413.18 253.14 413.06 251.37 403.81 251.14 403.85"/><polygon class="cls-2" points="21.97 217.32 12.82 217.45 12.83 218.13 22.21 217.99 22.2 217.31 21.97 217.32"/><polygon class="cls-2" points="416.7 211.41 416.47 211.41 407.24 211.55 407.25 212.23 416.71 212.08 416.7 211.41"/><polygon class="cls-2" points="403.61 143.18 403.37 142.54 403.15 142.63 394.58 145.89 394.82 146.52 403.61 143.18"/><polygon class="cls-2" points="25.91 286.36 26.15 286.99 34.9 283.66 34.66 283.03 34.45 283.11 25.91 286.36"/><polygon class="cls-2" points="380.22 116.31 388.31 111.47 387.96 110.89 387.77 111.01 379.87 115.72 380.22 116.31"/><polygon class="cls-2" points="49.28 313.25 49.08 313.37 41.22 318.07 41.56 318.65 49.62 313.83 49.28 313.25"/><polygon class="cls-2" points="68.9 340.49 68.73 340.63 61.79 346.64 62.23 347.15 69.35 340.99 68.9 340.49"/><polygon class="cls-2" points="360.61 89.07 360.78 88.92 367.73 82.9 367.3 82.39 367.12 82.54 360.17 88.56 360.61 89.07"/><polygon class="cls-2" points="120.58 383 116.11 391 116.7 391.33 121.28 383.13 120.69 382.8 120.58 383"/><polygon class="cls-2" points="312.71 38.41 308.25 46.39 308.85 46.72 313.41 38.53 312.82 38.2 312.71 38.41"/><polygon class="cls-2" points="92.89 364.14 85.52 373.19 86.04 373.62 93.56 364.39 93.03 363.96 92.89 364.14"/><polygon class="cls-2" points="336.8 65.53 341.02 60.34 340.5 59.92 340.35 60.09 336.13 65.28 336.65 65.7 336.8 65.53"/><polygon class="cls-2" points="280.63 26.05 278.24 32.93 278.88 33.15 281.34 26.06 280.7 25.84 280.63 26.05"/><polygon class="cls-2" points="151.86 397.02 148.25 407.44 148.88 407.65 152.57 397.02 151.94 396.8 151.86 397.02"/><polygon class="cls-2" points="184.01 405.05 182.36 415.32 183.02 415.43 184.71 404.93 184.05 404.82 184.01 405.05"/><polygon class="cls-2" points="246.5 16.75 245.23 24.62 245.9 24.73 247.2 16.63 246.53 16.52 246.5 16.75"/><polygon class="cls-2" points="16.48 253.15 25.66 251.38 25.53 250.72 25.31 250.76 16.35 252.48 16.48 253.15"/><polygon class="cls-2" points="404.16 178.79 413.18 177.06 413.05 176.39 412.82 176.44 403.8 178.17 403.93 178.83 404.16 178.79"/><path class="cls-2" d="M240.24,1.3l-.23,0-.46-.05-2.62,22.26.34,0,.35,0,0-.23Z"/><polygon class="cls-2" points="191.83 405.92 191.81 406.15 189.22 428.15 189.9 428.23 192.52 406 192.23 405.97 191.83 405.92"/><polygon class="cls-2" points="170.84 27.21 170.78 26.98 165.71 5.45 165.48 5.5 165.03 5.61 170.17 27.36 170.84 27.21"/><polygon class="cls-2" points="259.06 402.17 258.7 402.24 258.67 402.49 263.75 424.01 264.42 423.85 259.29 402.11 259.06 402.17"/><polygon class="cls-2" points="290.93 391.59 290.51 391.78 290.6 391.99 299.34 412.32 299.98 412.04 291.14 391.5 290.93 391.59"/><polygon class="cls-2" points="130.11 17.14 129.9 17.23 129.48 17.41 138.32 37.97 138.95 37.69 138.86 37.48 130.11 17.14"/><polygon class="cls-2" points="109.38 53.57 97.08 34.83 96.89 34.96 96.51 35.21 108.8 53.95 109.38 53.57"/><polygon class="cls-2" points="320.47 375.64 320.08 375.89 332.37 394.62 332.94 394.24 320.66 375.52 320.47 375.64"/><polygon class="cls-2" points="346.8 354.84 346.46 355.15 361.82 371.46 362.32 370.98 346.97 354.68 346.8 354.84"/><polygon class="cls-2" points="67.47 58.15 67.13 58.47 82.49 74.78 83 74.31 67.63 58 67.47 58.15"/><polygon class="cls-2" points="369.1 329.86 368.87 330.16 369.06 330.3 386.8 343.53 387.21 342.98 369.29 329.61 369.1 329.86"/><polygon class="cls-2" points="42.65 85.92 42.51 86.1 42.24 86.47 60.17 99.85 60.59 99.3 60.4 99.16 42.65 85.92"/><polygon class="cls-2" points="42.84 127.85 42.63 127.74 24.89 118.81 24.79 119.01 24.58 119.42 42.53 128.46 42.84 127.85"/><polygon class="cls-2" points="386.79 301.27 386.61 301.63 386.78 301.79 408.55 312.75 408.86 312.13 386.88 301.07 386.79 301.27"/><polygon class="cls-2" points="30.46 158.77 30.24 158.7 10.25 152.69 10.18 152.91 10.05 153.35 30.27 159.43 30.46 158.77"/><polygon class="cls-2" points="399.25 269.82 399.12 270.26 421.75 277.06 421.95 276.4 399.31 269.6 399.25 269.82"/><polygon class="cls-2" points="204.07 22.46 204.06 22.23 202.79 0.11 202.56 0.13 202.1 0.15 203.38 22.49 204.07 22.46"/><polygon class="cls-2" points="225.84 406.99 225.47 407.01 225.4 407.25 226.66 429.34 227.35 429.3 226.07 406.98 225.84 406.99"/><path class="cls-2" d="M23.5,192.19c0-.06.05-.36.05-.36l-.23,0-22-2.59-.08.68,22.25,2.62Z"/><path class="cls-2" d="M428,239.53l-22-2.6,0,.35c0,.05-.05.34-.05.34l.23,0,22,2.6.08-.68Z"/><polygon class="cls-2" points="27.2 258.62 26.97 258.67 5.45 263.75 5.61 264.42 27.35 259.29 27.2 258.62"/><polygon class="cls-2" points="402.23 170.75 402.47 170.78 424.01 165.7 423.85 165.03 423.62 165.09 402.1 170.16 402.23 170.75"/><polygon class="cls-2" points="391.97 138.86 412.31 130.11 412.04 129.47 411.83 129.56 391.48 138.32 391.76 138.94 391.97 138.86"/><polygon class="cls-2" points="37.47 290.6 17.14 299.34 17.41 299.98 37.96 291.14 37.68 290.51 37.47 290.6"/><polygon class="cls-2" points="53.37 320.21 34.83 332.37 35.21 332.95 53.94 320.66 53.56 320.08 53.37 320.21"/><polygon class="cls-2" points="394.62 97.08 394.24 96.51 394.05 96.63 375.5 108.8 375.88 109.38 394.62 97.08"/><polygon class="cls-2" points="99.15 369.06 85.92 386.8 86.47 387.21 99.84 369.3 99.34 368.92 99.15 369.06"/><polygon class="cls-2" points="342.84 42.42 329.6 60.17 330.15 60.59 330.29 60.4 343.53 42.65 342.98 42.24 342.84 42.42"/><polygon class="cls-2" points="74.21 346.71 56.14 363.72 56.61 364.22 74.85 347.05 74.38 346.55 74.21 346.71"/><polygon class="cls-2" points="355.38 82.92 369.6 69.53 369.13 69.03 368.96 69.19 354.75 82.57 355.21 83.08 355.38 82.92"/><polygon class="cls-2" points="310.73 24.88 301.67 42.88 302.29 43.2 302.39 42.99 311.45 24.99 310.83 24.68 310.73 24.88"/><polygon class="cls-2" points="128.34 387.13 117.51 408.64 118.13 408.95 129.06 387.23 128.45 386.93 128.34 387.13"/><polygon class="cls-2" points="159.12 399.35 152.39 421.75 153.05 421.95 159.85 399.32 159.19 399.13 159.12 399.35"/><polygon class="cls-2" points="276.03 10.27 270.02 30.27 270.68 30.46 270.75 30.25 276.76 10.24 276.1 10.05 276.03 10.27"/><polygon class="cls-2" points="22.45 225.38 22.22 225.4 0.12 226.66 0.15 227.35 22.48 226.07 22.45 225.38"/><polygon class="cls-2" points="407 203.99 407.23 204.06 429.34 202.79 429.3 202.1 429.07 202.12 406.96 203.38 407 203.99"/><polygon class="cls-2" points="209.07 407.2 208.63 407.19 208.34 416.63 209.02 416.65 209.3 407.21 209.07 407.2"/><polygon class="cls-2" points="220.89 22.29 221.18 12.91 220.95 12.9 220.5 12.88 220.22 22.27 220.89 22.29"/><polygon class="cls-2" points="154.68 31.75 151.75 22.89 151.53 22.96 151.11 23.1 154.04 31.97 154.68 31.75"/><polygon class="cls-2" points="275.24 397.56 274.82 397.71 274.89 397.92 277.77 406.65 278.41 406.44 275.46 397.49 275.24 397.56"/><polygon class="cls-2" points="306.05 384.26 305.65 384.47 305.76 384.67 310.13 392.8 310.73 392.48 306.25 384.15 306.05 384.26"/><polygon class="cls-2" points="123.82 44.99 119.39 36.74 119.18 36.85 118.79 37.06 123.23 45.31 123.82 44.99"/><polygon class="cls-2" points="334.09 365.82 333.74 366.1 339.6 373.53 340.13 373.11 334.27 365.68 334.09 365.82"/><polygon class="cls-2" points="95.72 63.36 89.92 56.01 89.74 56.15 89.39 56.42 95.19 63.78 95.72 63.36"/><polygon class="cls-2" points="71.23 86.33 71.06 86.18 64.25 80.1 64.1 80.27 63.8 80.6 70.79 86.83 71.23 86.33"/><polygon class="cls-2" points="358.51 342.81 358.21 343.14 365.27 349.44 365.72 348.94 358.66 342.64 358.51 342.81"/><polygon class="cls-2" points="386.37 321.26 386.73 320.69 378.7 315.72 378.58 315.92 378.35 316.3 386.37 321.26"/><polygon class="cls-2" points="43.03 108.48 42.79 108.85 50.74 113.76 51.09 113.19 43.15 108.28 43.03 108.48"/><polygon class="cls-2" points="29.22 140.52 29.13 140.73 28.97 141.15 35.67 143.82 35.92 143.19 29.22 140.52"/><polygon class="cls-2" points="393.69 286.47 404.21 290.66 404.46 290.03 393.73 285.76 393.63 286.01 393.48 286.39 393.69 286.47"/><polygon class="cls-2" points="403.22 254.01 413.65 256.18 413.78 255.51 403.36 253.35 403.31 253.58 403.22 254.01"/><polygon class="cls-2" points="18.28 173.43 18.23 173.66 18.15 174.1 26.16 175.76 26.3 175.1 18.28 173.43"/><polygon class="cls-2" points="187.35 24.11 187.34 23.88 186.03 14.86 185.8 14.89 185.36 14.96 186.7 24.2 187.35 24.11"/><polygon class="cls-2" points="242.58 405.3 242.14 405.36 243.49 414.68 244.16 414.58 242.81 405.26 242.58 405.3"/><polygon class="cls-2" points="22.05 208.63 12.9 208.35 12.88 209.03 22.26 209.31 22.28 208.64 22.05 208.63"/><polygon class="cls-2" points="416.64 220.51 416.41 220.5 407.19 220.22 407.17 220.9 416.62 221.19 416.64 220.51"/><polygon class="cls-2" points="406.64 151.76 406.43 151.12 406.21 151.19 397.5 154.07 397.71 154.71 406.64 151.76"/><polygon class="cls-2" points="22.88 277.78 23.09 278.42 31.98 275.49 31.77 274.85 31.55 274.92 22.88 277.78"/><polygon class="cls-2" points="384.48 123.86 392.79 119.39 392.46 118.8 392.27 118.91 384.17 123.26 384.48 123.86"/><polygon class="cls-2" points="45.01 305.69 44.8 305.81 36.73 310.14 37.05 310.74 45.33 306.29 45.01 305.69"/><polygon class="cls-2" points="63.39 333.79 63.21 333.93 56 339.61 56.42 340.14 63.81 334.31 63.39 333.79"/><polygon class="cls-2" points="366.12 95.77 366.3 95.62 373.52 89.93 373.11 89.4 372.92 89.54 365.71 95.23 366.12 95.77"/><polygon class="cls-2" points="113.09 378.59 108.27 386.38 108.85 386.73 113.78 378.75 113.21 378.39 113.09 378.59"/><polygon class="cls-2" points="320.55 43 315.74 50.77 316.32 51.13 321.25 43.16 320.67 42.8 320.55 43"/><polygon class="cls-2" points="86.28 358.5 78.51 367.21 79.01 367.66 86.94 358.78 86.43 358.33 86.28 358.5"/><polygon class="cls-2" points="343.4 71.18 347.85 66.19 347.34 65.74 347.19 65.91 342.74 70.9 343.25 71.35 343.4 71.18"/><polygon class="cls-2" points="289.06 29.21 286.37 35.97 286.99 36.23 289.77 29.25 289.14 29 289.06 29.21"/><polygon class="cls-2" points="143.71 394 139.63 404.24 140.26 404.49 144.42 394.04 143.79 393.78 143.71 394"/><polygon class="cls-2" points="175.47 403.48 173.35 413.66 174.01 413.79 176.17 403.38 175.51 403.25 175.47 403.48"/><polygon class="cls-2" points="255.39 18.38 253.77 26.19 254.43 26.33 256.1 18.29 255.43 18.15 255.39 18.38"/><polygon class="cls-2" points="14.95 244.17 24.2 242.83 24.1 242.16 23.88 242.19 14.85 243.5 14.95 244.17"/><polygon class="cls-2" points="405.58 187.36 414.67 186.04 414.57 185.37 414.35 185.4 405.26 186.72 405.35 187.39 405.58 187.36"/><path class="cls-2" d="M227.17.14h-.23l-.46,0-1.26,22.38h.34l.35,0v-.24Z"/><polygon class="cls-2" points="203.54 406.96 203.53 407.19 202.29 429.31 202.98 429.35 204.23 407 203.94 406.99 203.54 406.96"/><polygon class="cls-2" points="159.48 30.23 159.41 30.01 153.02 8.83 152.8 8.89 152.36 9.03 158.81 30.43 159.48 30.23"/><polygon class="cls-2" points="270.42 399.11 270.06 399.21 270.05 399.46 276.43 420.63 277.09 420.43 270.64 399.05 270.42 399.11"/><polygon class="cls-2" points="301.58 386.61 301.17 386.82 301.27 387.03 311.24 406.78 311.86 406.47 301.79 386.51 301.58 386.61"/><polygon class="cls-2" points="118.21 22.67 118 22.77 117.59 22.98 127.67 42.96 128.28 42.65 128.18 42.44 118.21 22.67"/><polygon class="cls-2" points="99.74 60.3 86.32 42.35 86.14 42.49 85.77 42.76 99.19 60.71 99.74 60.3"/><polygon class="cls-2" points="330.09 368.89 329.72 369.17 343.13 387.11 343.68 386.69 330.27 368.75 330.09 368.89"/><polygon class="cls-2" points="355.11 346.52 354.79 346.85 371.11 362.19 371.58 361.69 355.26 346.35 355.11 346.52"/><polygon class="cls-2" points="58.19 67.43 57.87 67.77 74.2 83.11 74.67 82.61 58.34 67.27 58.19 67.43"/><polygon class="cls-2" points="375.84 320.23 375.63 320.54 375.82 320.66 394.34 332.79 394.72 332.22 376.01 319.96 375.84 320.23"/><polygon class="cls-2" points="35.11 96.66 34.98 96.85 34.73 97.24 53.45 109.49 53.83 108.92 53.63 108.8 35.11 96.66"/><polygon class="cls-2" points="37.86 138.5 37.65 138.41 19.39 130.57 19.3 130.78 19.12 131.21 37.59 139.13 37.86 138.5"/><polygon class="cls-2" points="391.75 290.61 391.59 290.98 391.78 291.13 414.17 300.74 414.44 300.11 391.83 290.4 391.75 290.61"/><polygon class="cls-2" points="27.39 170.12 27.16 170.06 6.84 165.29 6.79 165.51 6.68 165.96 27.23 170.79 27.39 170.12"/><polygon class="cls-2" points="402.26 258.46 402.17 258.91 425.17 264.31 425.33 263.64 402.32 258.23 402.26 258.46"/><polygon class="cls-2" points="192.36 23.47 192.33 23.24 189.72 1.24 189.49 1.27 189.03 1.32 191.67 23.54 192.36 23.47"/><polygon class="cls-2" points="237.55 405.96 237.18 406 237.13 406.24 239.74 428.21 240.42 428.13 237.78 405.93 237.55 405.96"/><path class="cls-2" d="M22.48,203.9l0-.35-.24,0L.14,202.29l0,.69,22.37,1.26Z"/><path class="cls-2" d="M429.12,226.47,407,225.22v.35c0,.05,0,.34,0,.34h.24l22.13,1.25,0-.69Z"/><polygon class="cls-2" points="30.22 269.98 30 270.05 8.83 276.43 9.03 277.09 30.42 270.64 30.22 269.98"/><polygon class="cls-2" points="399.19 159.39 399.44 159.41 420.62 153.02 420.42 152.37 420.2 152.43 399.03 158.81 399.19 159.39"/><polygon class="cls-2" points="387.01 128.18 406.78 118.21 406.47 117.59 406.26 117.7 386.49 127.67 386.81 128.28 387.01 128.18"/><polygon class="cls-2" points="42.43 301.27 22.67 311.25 22.98 311.86 42.95 301.79 42.63 301.18 42.43 301.27"/><polygon class="cls-2" points="60.1 329.86 42.35 343.13 42.76 343.68 60.7 330.27 60.29 329.72 60.1 329.86"/><polygon class="cls-2" points="387.1 86.33 386.69 85.77 386.51 85.91 368.74 99.19 369.15 99.74 387.1 86.33"/><polygon class="cls-2" points="108.79 375.83 96.66 394.34 97.24 394.72 109.49 376.02 108.96 375.67 108.79 375.83"/><polygon class="cls-2" points="332.09 34.92 319.95 53.45 320.53 53.84 320.65 53.64 332.79 35.11 332.21 34.73 332.09 34.92"/><polygon class="cls-2" points="82.52 355.04 65.53 373.12 66.03 373.59 83.18 355.34 82.68 354.87 82.52 355.04"/><polygon class="cls-2" points="347.08 74.58 360.45 60.35 359.95 59.88 359.79 60.05 346.42 74.27 346.92 74.75 347.08 74.58"/><polygon class="cls-2" points="298.96 19.38 291.02 37.89 291.65 38.17 291.74 37.96 299.69 19.44 299.06 19.16 298.96 19.38"/><polygon class="cls-2" points="139.03 392.08 129.53 414.22 130.16 414.49 139.75 392.13 139.12 391.87 139.03 392.08"/><polygon class="cls-2" points="170.49 402.4 165.14 425.17 165.81 425.33 171.22 402.33 170.55 402.18 170.49 402.4"/><polygon class="cls-2" points="263.44 6.91 258.66 27.24 259.33 27.39 259.39 27.17 264.17 6.84 263.5 6.68 263.44 6.91"/><polygon class="cls-2" points="23.46 237.1 23.23 237.13 1.24 239.74 1.32 240.42 23.53 237.78 23.46 237.1"/><polygon class="cls-2" points="405.98 192.28 406.22 192.33 428.21 189.72 428.13 189.03 427.9 189.06 405.91 191.67 405.98 192.28"/><polygon class="cls-2" points="220.83 407.19 220.39 407.2 220.68 416.65 221.35 416.63 221.06 407.18 220.83 407.19"/><polygon class="cls-2" points="209.14 22.27 208.85 12.89 208.62 12.9 208.17 12.91 208.46 22.29 209.14 22.27"/><polygon class="cls-2" points="143.62 35.76 140.16 27.09 139.94 27.17 139.53 27.34 143 36.01 143.62 35.76"/><polygon class="cls-2" points="286.29 393.53 285.87 393.7 285.96 393.91 289.37 402.45 289.99 402.2 286.5 393.44 286.29 393.53"/><polygon class="cls-2" points="316.23 378.37 315.84 378.61 315.97 378.8 320.82 386.64 321.4 386.29 316.42 378.25 316.23 378.37"/><polygon class="cls-2" points="113.63 50.85 108.7 42.89 108.51 43.01 108.13 43.25 113.06 51.21 113.63 50.85"/><polygon class="cls-2" points="343.08 358.26 342.76 358.56 349.06 365.62 349.56 365.17 343.25 358.11 343.08 358.26"/><polygon class="cls-2" points="86.71 70.91 80.47 63.92 80.3 64.07 79.96 64.37 86.2 71.36 86.71 70.91"/><polygon class="cls-2" points="63.66 95.33 63.49 95.18 56.31 89.53 56.17 89.71 55.9 90.06 63.25 95.86 63.66 95.33"/><polygon class="cls-2" points="366.06 333.8 365.78 334.15 373.21 340 373.63 339.47 366.2 333.62 366.06 333.8"/><polygon class="cls-2" points="392.55 310.58 392.87 309.99 384.56 305.53 384.45 305.73 384.24 306.12 392.55 310.58"/><polygon class="cls-2" points="36.87 119.15 36.65 119.55 44.88 123.96 45.2 123.36 36.97 118.95 36.87 119.15"/><polygon class="cls-2" points="25.04 151.98 24.96 152.2 24.82 152.62 31.68 154.88 31.89 154.24 25.04 151.98"/><polygon class="cls-2" points="397.74 275.42 408.49 278.96 408.7 278.31 397.73 274.7 397.65 274.96 397.52 275.35 397.74 275.42"/><polygon class="cls-2" points="405.27 242.44 415.81 243.96 415.9 243.29 405.36 241.77 405.33 242 405.27 242.44"/><polygon class="cls-2" points="16.13 185.5 16.09 185.73 16.03 186.17 24.14 187.34 24.24 186.67 16.13 185.5"/><polygon class="cls-2" points="175.77 26.13 175.74 25.91 173.88 16.98 173.66 17.03 173.22 17.12 175.13 26.27 175.77 26.13"/><polygon class="cls-2" points="254.16 403.24 253.72 403.33 255.64 412.55 256.31 412.42 254.38 403.19 254.16 403.24"/><polygon class="cls-2" points="22.03 220.4 12.88 220.68 12.9 221.36 22.28 221.07 22.26 220.39 22.03 220.4"/><polygon class="cls-2" points="416.62 208.18 416.39 208.19 407.17 208.47 407.19 209.15 416.64 208.85 416.62 208.18"/><polygon class="cls-2" points="402.44 140.16 402.19 139.54 401.98 139.62 393.46 143.03 393.7 143.65 402.44 140.16"/><polygon class="cls-2" points="27.08 289.37 27.33 290 36.03 286.53 35.77 285.9 35.56 285.99 27.08 289.37"/><polygon class="cls-2" points="378.62 113.67 386.64 108.7 386.28 108.13 386.09 108.25 378.27 113.09 378.62 113.67"/><polygon class="cls-2" points="50.87 315.88 50.68 316 42.89 320.83 43.24 321.4 51.23 316.46 50.87 315.88"/><polygon class="cls-2" points="70.93 342.8 70.76 342.95 63.92 349.07 64.37 349.57 71.39 343.3 70.93 342.8"/><polygon class="cls-2" points="358.58 86.75 358.75 86.6 365.61 80.47 365.16 79.97 364.99 80.12 358.13 86.25 358.58 86.75"/><polygon class="cls-2" points="123.28 384.49 118.94 392.56 119.54 392.87 123.98 384.6 123.39 384.28 123.28 384.49"/><polygon class="cls-2" points="309.88 36.86 305.55 44.92 306.15 45.24 310.58 36.98 309.99 36.66 309.88 36.86"/><polygon class="cls-2" points="95.29 366.07 88.07 375.24 88.6 375.66 95.96 366.31 95.43 365.89 95.29 366.07"/><polygon class="cls-2" points="334.4 63.59 338.53 58.34 338 57.92 337.86 58.1 333.73 63.35 334.25 63.77 334.4 63.59"/><polygon class="cls-2" points="277.6 25.02 275.32 31.94 275.96 32.15 278.31 25.02 277.67 24.8 277.6 25.02"/><polygon class="cls-2" points="154.78 398 151.33 408.47 151.98 408.68 155.5 398 154.85 397.78 154.78 398"/><polygon class="cls-2" points="187.06 405.52 185.57 415.81 186.24 415.91 187.76 405.39 187.09 405.29 187.06 405.52"/><polygon class="cls-2" points="243.33 16.26 242.19 24.16 242.86 24.26 244.03 16.13 243.36 16.04 243.33 16.26"/><polygon class="cls-2" points="17.12 256.31 26.27 254.4 26.13 253.74 25.91 253.79 16.98 255.65 17.12 256.31"/><polygon class="cls-2" points="403.56 175.76 412.55 173.89 412.41 173.23 412.18 173.27 403.19 175.15 403.33 175.81 403.56 175.76"/><path class="cls-2" d="M236.82.92l-.23,0-.45-.05-2.27,22.3.34,0,.35,0,0-.23Z"/><polygon class="cls-2" points="194.89 406.26 194.87 406.49 192.63 428.53 193.32 428.6 195.58 406.33 195.29 406.3 194.89 406.26"/><polygon class="cls-2" points="167.85 27.93 167.79 27.71 162.36 6.26 162.14 6.31 161.69 6.43 167.18 28.1 167.85 27.93"/><polygon class="cls-2" points="262.05 401.43 261.69 401.52 261.67 401.76 267.09 423.2 267.75 423.03 262.28 401.38 262.05 401.43"/><polygon class="cls-2" points="293.75 390.35 293.33 390.55 293.42 390.75 302.49 410.94 303.12 410.65 293.96 390.26 293.75 390.35"/><polygon class="cls-2" points="126.96 18.52 126.75 18.61 126.33 18.8 135.5 39.21 136.12 38.93 136.03 38.72 126.96 18.52"/><polygon class="cls-2" points="106.81 55.27 94.22 36.74 94.03 36.87 93.65 37.13 106.25 55.66 106.81 55.27"/><polygon class="cls-2" points="323.03 373.93 322.65 374.19 335.23 392.71 335.8 392.33 323.22 373.8 323.03 373.93"/><polygon class="cls-2" points="349.03 352.71 348.69 353.03 364.31 369.08 364.8 368.61 349.19 352.55 349.03 352.71"/><polygon class="cls-2" points="64.98 60.53 64.65 60.85 80.27 76.92 80.77 76.44 65.14 60.37 64.98 60.53"/><polygon class="cls-2" points="370.92 327.38 370.7 327.68 370.89 327.81 388.84 340.76 389.24 340.21 371.11 327.13 370.92 327.38"/><polygon class="cls-2" points="40.61 88.69 40.48 88.87 40.21 89.25 58.35 102.33 58.76 101.78 58.57 101.64 40.61 88.69"/><polygon class="cls-2" points="41.47 130.61 41.27 130.51 23.38 121.86 23.28 122.06 23.08 122.48 41.18 131.23 41.47 130.61"/><polygon class="cls-2" points="388.15 298.51 387.98 298.87 388.15 299.03 410.09 309.63 410.39 309.01 388.24 298.31 388.15 298.51"/><polygon class="cls-2" points="29.59 161.72 29.37 161.66 9.28 155.97 9.22 156.19 9.09 156.63 29.41 162.38 29.59 161.72"/><polygon class="cls-2" points="400.11 266.86 399.98 267.31 422.72 273.74 422.91 273.08 400.17 266.64 400.11 266.86"/><polygon class="cls-2" points="201 22.65 200.98 22.42 199.36 0.33 199.13 0.35 198.67 0.38 200.31 22.7 201 22.65"/><polygon class="cls-2" points="228.91 406.79 228.54 406.82 228.47 407.05 230.09 429.12 230.78 429.07 229.15 406.77 228.91 406.79"/><path class="cls-2" d="M23.17,195.25c0-.06,0-.35,0-.35l-.23,0-22-2.24-.07.69,22.29,2.26Z"/><path class="cls-2" d="M428.37,236.11l-22.06-2.24,0,.35c0,.05,0,.34,0,.34l.24,0,22,2.24.07-.68Z"/><polygon class="cls-2" points="27.92 261.61 27.7 261.67 6.26 267.09 6.43 267.76 28.08 262.28 27.92 261.61"/><polygon class="cls-2" points="401.5 167.76 401.75 167.79 423.19 162.36 423.02 161.7 422.8 161.75 401.36 167.17 401.5 167.76"/><polygon class="cls-2" points="390.74 136.03 410.93 126.96 410.65 126.33 410.44 126.42 390.24 135.5 390.53 136.12 390.74 136.03"/><polygon class="cls-2" points="38.71 293.42 18.52 302.49 18.8 303.12 39.2 293.96 38.92 293.33 38.71 293.42"/><polygon class="cls-2" points="55.07 322.78 36.74 335.23 37.13 335.8 55.65 323.22 55.26 322.65 55.07 322.78"/><polygon class="cls-2" points="392.71 94.22 392.33 93.65 392.13 93.78 373.79 106.24 374.18 106.81 392.71 94.22"/><polygon class="cls-2" points="101.64 370.89 88.69 388.84 89.25 389.24 102.33 371.11 101.82 370.74 101.64 370.89"/><polygon class="cls-2" points="340.07 40.39 327.12 58.35 327.67 58.77 327.81 58.58 340.76 40.61 340.2 40.21 340.07 40.39"/><polygon class="cls-2" points="76.34 348.94 58.54 366.24 59.02 366.73 76.98 349.27 76.5 348.78 76.34 348.94"/><polygon class="cls-2" points="353.26 80.69 367.26 67.07 366.78 66.58 366.61 66.74 352.61 80.35 353.09 80.85 353.26 80.69"/><polygon class="cls-2" points="307.68 23.37 298.91 41.51 299.53 41.82 299.63 41.61 308.4 23.46 307.78 23.16 307.68 23.37"/><polygon class="cls-2" points="131.11 388.49 120.62 410.17 121.24 410.48 131.83 388.58 131.21 388.28 131.11 388.49"/><polygon class="cls-2" points="162.08 400.22 155.71 422.72 156.37 422.91 162.81 400.18 162.15 400 162.08 400.22"/><polygon class="cls-2" points="272.76 9.31 267.07 29.41 267.73 29.59 267.8 29.37 273.48 9.28 272.82 9.09 272.76 9.31"/><polygon class="cls-2" points="22.64 228.46 22.41 228.48 0.33 230.09 0.38 230.78 22.69 229.15 22.64 228.46"/><polygon class="cls-2" points="406.8 200.91 407.04 200.98 429.12 199.36 429.07 198.67 428.84 198.69 406.76 200.31 406.8 200.91"/><polygon class="cls-2" points="212.15 407.27 211.71 407.26 211.57 416.71 212.25 416.72 212.38 407.27 212.15 407.27"/><polygon class="cls-2" points="217.81 22.21 217.95 12.83 217.72 12.82 217.27 12.82 217.14 22.2 217.81 22.21"/><polygon class="cls-2" points="151.76 32.74 148.69 23.92 148.47 23.99 148.05 24.14 151.12 32.96 151.76 32.74"/><polygon class="cls-2" points="278.15 396.57 277.74 396.72 277.81 396.94 280.83 405.62 281.47 405.4 278.37 396.5 278.15 396.57"/><polygon class="cls-2" points="308.75 382.77 308.36 382.99 308.47 383.19 312.97 391.25 313.56 390.92 308.95 382.67 308.75 382.77"/><polygon class="cls-2" points="121.12 46.46 116.55 38.29 116.35 38.4 115.96 38.62 120.53 46.79 121.12 46.46"/><polygon class="cls-2" points="336.49 363.9 336.15 364.18 342.12 371.51 342.65 371.09 336.66 363.75 336.49 363.9"/><polygon class="cls-2" points="93.32 65.29 87.4 58.02 87.22 58.17 86.87 58.45 92.79 65.71 93.32 65.29"/><polygon class="cls-2" points="69.2 88.64 69.03 88.49 62.12 82.52 61.97 82.7 61.67 83.03 68.76 89.15 69.2 88.64"/><polygon class="cls-2" points="360.54 340.5 360.25 340.83 367.41 347.02 367.85 346.51 360.69 340.32 360.54 340.5"/><polygon class="cls-2" points="388.05 318.5 388.4 317.92 380.29 313.09 380.18 313.29 379.95 313.67 388.05 318.5"/><polygon class="cls-2" points="41.35 111.23 41.12 111.62 49.14 116.4 49.49 115.82 41.47 111.04 41.35 111.23"/><polygon class="cls-2" points="28.06 143.5 27.97 143.71 27.82 144.13 34.56 146.69 34.8 146.06 28.06 143.5"/><polygon class="cls-2" points="394.82 283.6 405.4 287.62 405.64 286.99 394.84 282.89 394.75 283.14 394.6 283.52 394.82 283.6"/><polygon class="cls-2" points="403.82 251 414.29 252.99 414.41 252.33 403.95 250.33 403.91 250.56 403.82 251"/><polygon class="cls-2" points="17.65 176.58 17.6 176.81 17.52 177.25 25.57 178.78 25.69 178.12 17.65 176.58"/><polygon class="cls-2" points="184.3 24.57 184.29 24.34 182.83 15.34 182.6 15.38 182.17 15.45 183.66 24.67 184.3 24.57"/><polygon class="cls-2" points="245.62 404.83 245.18 404.9 246.69 414.19 247.36 414.09 245.85 404.79 245.62 404.83"/><polygon class="cls-2" points="21.97 211.71 12.82 211.58 12.81 212.25 22.2 212.39 22.2 211.72 21.97 211.71"/><polygon class="cls-2" points="416.71 217.28 416.48 217.28 407.25 217.15 407.24 217.82 416.7 217.96 416.71 217.28"/><polygon class="cls-2" points="405.61 148.69 405.39 148.06 405.17 148.13 396.5 151.15 396.73 151.79 405.61 148.69"/><polygon class="cls-2" points="23.91 280.84 24.13 281.48 32.97 278.4 32.75 277.76 32.53 277.84 23.91 280.84"/><polygon class="cls-2" points="383.01 121.16 391.24 116.56 390.91 115.97 390.71 116.08 382.68 120.56 383.01 121.16"/><polygon class="cls-2" points="46.48 308.4 46.28 308.51 38.28 312.98 38.61 313.57 46.81 308.99 46.48 308.4"/><polygon class="cls-2" points="65.31 336.19 65.13 336.33 58.02 342.13 58.45 342.65 65.74 336.71 65.31 336.19"/><polygon class="cls-2" points="364.2 93.36 364.38 93.21 371.5 87.41 371.08 86.88 370.9 87.03 363.78 92.84 364.2 93.36"/><polygon class="cls-2" points="115.72 380.19 111.03 388.06 111.61 388.4 116.42 380.34 115.84 380 115.72 380.19"/><polygon class="cls-2" points="317.79 41.33 313.11 49.18 313.69 49.53 318.49 41.48 317.91 41.13 317.79 41.33"/><polygon class="cls-2" points="88.59 360.54 80.96 369.37 81.47 369.81 89.25 360.8 88.74 360.36 88.59 360.54"/><polygon class="cls-2" points="341.09 69.14 345.45 64.08 344.94 63.64 344.79 63.81 340.43 68.87 340.93 69.31 341.09 69.14"/><polygon class="cls-2" points="286.08 28.05 283.5 34.85 284.13 35.09 286.79 28.07 286.16 27.83 286.08 28.05"/><polygon class="cls-2" points="146.59 395.11 142.67 405.42 143.3 405.66 147.3 395.14 146.67 394.9 146.59 395.11"/><polygon class="cls-2" points="178.49 404.08 176.54 414.29 177.2 414.42 179.19 403.98 178.53 403.85 178.49 404.08"/><polygon class="cls-2" points="252.24 17.75 250.75 25.59 251.41 25.72 252.95 17.65 252.28 17.53 252.24 17.75"/><polygon class="cls-2" points="15.44 247.36 24.68 245.87 24.57 245.2 24.34 245.24 15.34 246.69 15.44 247.36"/><polygon class="cls-2" points="405.12 184.31 414.19 182.84 414.08 182.18 413.85 182.21 404.79 183.68 404.89 184.34 405.12 184.31"/><path class="cls-2" d="M232.67.53l-.22,0-.46,0-1.84,22.33.35,0,.34,0,0-.23Z"/><polygon class="cls-2" points="198.61 406.61 198.59 406.84 196.78 428.92 197.47 428.98 199.3 406.67 199.01 406.64 198.61 406.61"/><polygon class="cls-2" points="164.24 28.88 164.18 28.65 158.34 7.31 158.11 7.37 157.67 7.49 163.57 29.05 164.24 28.88"/><polygon class="cls-2" points="265.66 400.48 265.31 400.57 265.29 400.82 271.12 422.14 271.78 421.96 265.89 400.42 265.66 400.48"/><polygon class="cls-2" points="297.14 388.79 296.72 388.99 296.82 389.2 306.28 409.2 306.9 408.91 297.35 388.69 297.14 388.79"/><polygon class="cls-2" points="123.17 20.25 122.97 20.35 122.55 20.55 132.12 40.78 132.73 40.48 132.64 40.28 123.17 20.25"/><polygon class="cls-2" points="103.74 57.4 90.8 39.11 90.61 39.24 90.23 39.51 103.19 57.8 103.74 57.4"/><polygon class="cls-2" points="326.09 371.81 325.72 372.07 338.66 390.35 339.22 389.95 326.28 371.67 326.09 371.81"/><polygon class="cls-2" points="351.67 350.08 351.35 350.41 367.27 366.16 367.76 365.67 351.84 349.92 351.67 350.08"/><polygon class="cls-2" points="62.02 63.46 61.7 63.79 77.63 79.55 78.11 79.06 62.18 63.3 62.02 63.46"/><polygon class="cls-2" points="373.07 324.33 372.86 324.64 373.05 324.77 391.25 337.37 391.64 336.8 373.26 324.07 373.07 324.33"/><polygon class="cls-2" points="38.2 92.09 38.07 92.28 37.81 92.65 56.2 105.39 56.6 104.82 56.41 104.69 38.2 92.09"/><polygon class="cls-2" points="39.87 133.98 39.67 133.88 21.62 125.58 21.52 125.79 21.33 126.21 39.59 134.61 39.87 133.98"/><polygon class="cls-2" points="389.74 295.14 389.58 295.5 389.76 295.65 411.89 305.83 412.18 305.21 389.83 294.93 389.74 295.14"/><polygon class="cls-2" points="28.59 165.32 28.38 165.26 8.18 159.96 8.12 160.19 8.01 160.63 28.43 165.99 28.59 165.32"/><polygon class="cls-2" points="401.08 263.26 400.97 263.71 423.83 269.7 424 269.04 401.14 263.04 401.08 263.26"/><polygon class="cls-2" points="197.28 22.96 197.26 22.73 195.21 0.67 194.98 0.69 194.52 0.73 196.59 23.02 197.28 22.96"/><polygon class="cls-2" points="232.63 406.48 232.26 406.51 232.2 406.75 234.24 428.78 234.93 428.72 232.87 406.46 232.63 406.48"/><path class="cls-2" d="M22.83,199c0-.06,0-.36,0-.36l-.23,0L.53,196.78l-.05.69L22.8,199.3Z"/><path class="cls-2" d="M428.75,232l-22.1-1.81,0,.35c0,.05,0,.33,0,.33l.24,0,22.09,1.82L429,232Z"/><polygon class="cls-2" points="28.87 265.22 28.64 265.28 7.31 271.12 7.49 271.79 29.04 265.89 28.87 265.22"/><polygon class="cls-2" points="400.56 164.15 400.8 164.17 422.14 158.34 421.96 157.67 421.74 157.73 400.4 163.57 400.56 164.15"/><polygon class="cls-2" points="389.18 132.64 409.2 123.17 408.9 122.55 408.69 122.65 388.67 132.12 388.97 132.73 389.18 132.64"/><polygon class="cls-2" points="40.26 296.82 20.26 306.28 20.55 306.9 40.77 297.34 40.47 296.73 40.26 296.82"/><polygon class="cls-2" points="57.2 325.85 39.11 338.66 39.51 339.22 57.78 326.28 57.39 325.72 57.2 325.85"/><polygon class="cls-2" points="390.34 90.8 389.95 90.23 389.76 90.36 371.66 103.18 372.06 103.74 390.34 90.8"/><polygon class="cls-2" points="104.68 373.06 92.09 391.25 92.65 391.64 105.38 373.26 104.86 372.9 104.68 373.06"/><polygon class="cls-2" points="336.67 38 324.06 56.2 324.63 56.61 324.76 56.41 337.37 38.2 336.8 37.81 336.67 38"/><polygon class="cls-2" points="78.97 351.59 61.51 369.24 62 369.72 79.61 351.92 79.13 351.43 78.97 351.59"/><polygon class="cls-2" points="350.63 78.03 364.37 64.15 363.88 63.66 363.72 63.83 349.99 77.7 350.47 78.19 350.63 78.03"/><polygon class="cls-2" points="303.96 21.61 295.54 39.91 296.17 40.21 296.26 39.99 304.68 21.69 304.05 21.4 303.96 21.61"/><polygon class="cls-2" points="134.49 390.08 124.43 411.96 125.06 412.25 135.22 390.15 134.59 389.87 134.49 390.08"/><polygon class="cls-2" points="165.69 401.2 159.75 423.83 160.42 424 166.41 401.15 165.75 400.98 165.69 401.2"/><polygon class="cls-2" points="268.77 8.23 263.47 28.43 264.13 28.6 264.19 28.38 269.49 8.18 268.82 8.01 268.77 8.23"/><polygon class="cls-2" points="22.95 232.18 22.71 232.2 0.67 234.25 0.73 234.93 23 232.87 22.95 232.18"/><polygon class="cls-2" points="406.5 197.2 406.73 197.26 428.78 195.21 428.72 194.52 428.49 194.54 406.44 196.59 406.5 197.2"/><polygon class="cls-2" points="215.88 407.28 215.44 407.28 215.49 416.73 216.16 416.73 216.11 407.28 215.88 407.28"/><polygon class="cls-2" points="214.09 22.19 214.03 12.81 213.81 12.81 213.36 12.81 213.41 22.2 214.09 22.19"/><polygon class="cls-2" points="148.25 33.99 145 25.23 144.79 25.31 144.37 25.47 147.61 34.23 148.25 33.99"/><polygon class="cls-2" points="281.67 395.31 281.25 395.47 281.33 395.68 284.52 404.3 285.15 404.07 281.88 395.23 281.67 395.31"/><polygon class="cls-2" points="311.99 380.92 311.6 381.15 311.72 381.35 316.37 389.31 316.96 388.97 312.19 380.81 311.99 380.92"/><polygon class="cls-2" points="117.88 48.31 113.15 40.23 112.95 40.34 112.57 40.57 117.29 48.65 117.88 48.31"/><polygon class="cls-2" points="339.36 361.51 339.02 361.8 345.14 369.02 345.65 368.58 339.53 361.36 339.36 361.51"/><polygon class="cls-2" points="90.45 67.67 84.39 60.52 84.21 60.67 83.87 60.96 89.93 68.1 90.45 67.67"/><polygon class="cls-2" points="66.78 91.48 66.61 91.34 59.58 85.51 59.44 85.68 59.15 86.02 66.36 92 66.78 91.48"/><polygon class="cls-2" points="362.95 337.65 362.66 337.99 369.94 344.03 370.37 343.51 363.1 337.47 362.95 337.65"/><polygon class="cls-2" points="390.03 315.12 390.37 314.54 382.17 309.87 382.06 310.06 381.84 310.45 390.03 315.12"/><polygon class="cls-2" points="39.38 114.61 39.16 115 47.27 119.63 47.6 119.04 39.49 114.42 39.38 114.61"/><polygon class="cls-2" points="26.71 147.13 26.63 147.34 26.48 147.76 33.28 150.2 33.51 149.56 26.71 147.13"/><polygon class="cls-2" points="396.12 280.1 406.77 283.92 407 283.28 396.13 279.39 396.04 279.64 395.91 280.03 396.12 280.1"/><polygon class="cls-2" points="404.49 247.32 414.99 249.12 415.1 248.45 404.61 246.66 404.56 246.89 404.49 247.32"/><polygon class="cls-2" points="16.95 180.41 16.91 180.63 16.83 181.07 24.91 182.45 25.02 181.79 16.95 180.41"/><polygon class="cls-2" points="180.63 25.2 180.61 24.97 178.98 16 178.75 16.04 178.31 16.12 179.98 25.31 180.63 25.2"/><polygon class="cls-2" points="249.3 404.19 248.86 404.27 250.55 413.54 251.21 413.42 249.53 404.15 249.3 404.19"/><polygon class="cls-2" points="21.95 215.45 12.8 215.5 12.8 216.17 22.19 216.12 22.18 215.45 21.95 215.45"/><polygon class="cls-2" points="416.72 213.37 416.49 213.37 407.26 213.42 407.27 214.09 416.72 214.04 416.72 213.37"/><polygon class="cls-2" points="404.3 145.01 404.06 144.38 403.85 144.46 395.24 147.64 395.47 148.28 404.3 145.01"/><polygon class="cls-2" points="25.23 284.53 25.46 285.16 34.24 281.91 34.01 281.28 33.79 281.36 25.23 284.53"/><polygon class="cls-2" points="381.17 117.92 389.3 113.16 388.96 112.58 388.77 112.69 380.83 117.33 381.17 117.92"/><polygon class="cls-2" points="48.33 311.64 48.13 311.76 40.22 316.38 40.56 316.96 48.67 312.22 48.33 311.64"/><polygon class="cls-2" points="67.69 339.06 67.52 339.21 60.52 345.15 60.95 345.66 68.13 339.57 67.69 339.06"/><polygon class="cls-2" points="361.82 90.49 362 90.34 369 84.39 368.57 83.88 368.4 84.03 361.39 89.97 361.82 90.49"/><polygon class="cls-2" points="118.95 382.08 114.41 390.04 115 390.37 119.65 382.21 119.06 381.88 118.95 382.08"/><polygon class="cls-2" points="314.41 39.36 309.88 47.31 310.47 47.64 315.12 39.5 314.53 39.16 314.41 39.36"/><polygon class="cls-2" points="91.44 362.95 83.99 371.93 84.5 372.36 92.11 363.21 91.59 362.77 91.44 362.95"/><polygon class="cls-2" points="338.25 66.72 342.51 61.57 341.99 61.14 341.85 61.32 337.58 66.46 338.09 66.89 338.25 66.72"/><polygon class="cls-2" points="282.45 26.7 280 33.55 280.63 33.78 283.17 26.71 282.53 26.48 282.45 26.7"/><polygon class="cls-2" points="150.09 396.4 146.38 406.78 147.02 407.01 150.81 396.41 150.17 396.18 150.09 396.4"/><polygon class="cls-2" points="182.16 404.75 180.41 415 181.08 415.11 182.87 404.63 182.2 404.52 182.16 404.75"/><polygon class="cls-2" points="248.42 17.06 247.08 24.93 247.74 25.04 249.12 16.95 248.46 16.84 248.42 17.06"/><polygon class="cls-2" points="16.11 251.22 25.32 249.55 25.19 248.88 24.97 248.93 15.99 250.55 16.11 251.22"/><polygon class="cls-2" points="404.5 180.63 413.53 178.99 413.41 178.32 413.18 178.36 404.15 180 404.27 180.66 404.5 180.63"/><path class="cls-2" d="M242.31,1.56l-.23,0-.46-.06L238.78,23.7l.35,0,.34.05,0-.23Z"/><polygon class="cls-2" points="189.98 405.69 189.95 405.92 187.15 427.89 187.83 427.98 190.67 405.77 190.38 405.74 189.98 405.69"/><polygon class="cls-2" points="172.66 26.79 172.61 26.56 167.74 4.98 167.51 5.03 167.06 5.13 171.99 26.94 172.66 26.79"/><polygon class="cls-2" points="257.24 402.59 256.88 402.66 256.85 402.91 261.71 424.47 262.39 424.32 257.47 402.54 257.24 402.59"/><polygon class="cls-2" points="289.21 392.32 288.79 392.5 288.88 392.72 297.42 413.13 298.06 412.86 289.42 392.24 289.21 392.32"/><polygon class="cls-2" points="132.03 16.33 131.82 16.41 131.39 16.59 140.04 37.24 140.67 36.97 140.58 36.75 132.03 16.33"/><polygon class="cls-2" points="110.94 52.55 98.83 33.7 98.64 33.83 98.25 34.07 110.37 52.93 110.94 52.55"/><polygon class="cls-2" points="318.9 376.67 318.51 376.91 330.62 395.75 331.2 395.38 319.09 376.54 318.9 376.67"/><polygon class="cls-2" points="345.44 356.11 345.1 356.42 360.29 372.88 360.8 372.41 345.6 355.96 345.44 356.11"/><polygon class="cls-2" points="68.99 56.73 68.65 57.04 83.86 73.51 84.36 73.04 69.16 56.58 68.99 56.73"/><polygon class="cls-2" points="367.98 331.35 367.75 331.65 367.93 331.79 385.54 345.19 385.96 344.65 368.17 331.11 367.98 331.35"/><polygon class="cls-2" points="43.91 84.26 43.77 84.44 43.49 84.8 61.29 98.35 61.72 97.81 61.53 97.67 43.91 84.26"/><polygon class="cls-2" points="43.69 126.19 43.49 126.08 25.83 116.97 25.73 117.18 25.52 117.58 43.38 126.8 43.69 126.19"/><polygon class="cls-2" points="385.94 302.94 385.76 303.29 385.93 303.46 407.59 314.63 407.91 314.01 386.04 302.74 385.94 302.94"/><polygon class="cls-2" points="31.01 156.98 30.79 156.91 10.86 150.71 10.79 150.93 10.65 151.37 30.81 157.64 31.01 156.98"/><polygon class="cls-2" points="398.7 271.61 398.57 272.05 421.14 279.07 421.34 278.41 398.77 271.39 398.7 271.61"/><polygon class="cls-2" points="205.94 22.36 205.93 22.13 204.87 0.01 204.64 0.02 204.18 0.04 205.25 22.39 205.94 22.36"/><polygon class="cls-2" points="223.98 407.09 223.6 407.11 223.53 407.34 224.58 429.44 225.27 429.41 224.21 407.08 223.98 407.09"/><path class="cls-2" d="M23.73,190.33c0-.05.05-.35.05-.35l-.23,0-22-2.81-.09.68,22.22,2.84Z"/><path class="cls-2" d="M427.75,241.6l-22-2.81,0,.35s-.05.33-.05.33l.23,0,22,2.81.09-.68Z"/><polygon class="cls-2" points="26.78 256.79 26.55 256.85 4.98 261.72 5.13 262.39 26.92 257.47 26.78 256.79"/><polygon class="cls-2" points="402.65 172.57 402.89 172.61 424.47 167.74 424.32 167.06 424.09 167.12 402.52 171.99 402.65 172.57"/><polygon class="cls-2" points="392.7 140.58 413.12 132.03 412.86 131.39 412.65 131.48 392.22 140.03 392.49 140.67 392.7 140.58"/><polygon class="cls-2" points="36.74 288.88 16.33 297.43 16.59 298.06 37.22 289.42 36.95 288.79 36.74 288.88"/><polygon class="cls-2" points="52.35 318.64 33.7 330.62 34.08 331.2 52.92 319.09 52.54 318.52 52.35 318.64"/><polygon class="cls-2" points="395.75 98.83 395.38 98.25 395.19 98.38 376.52 110.37 376.9 110.94 395.75 98.83"/><polygon class="cls-2" points="97.66 367.94 84.26 385.54 84.8 385.96 98.34 368.17 97.85 367.79 97.66 367.94"/><polygon class="cls-2" points="344.51 43.67 331.1 61.29 331.64 61.72 331.78 61.53 345.2 43.91 344.65 43.49 344.51 43.67"/><polygon class="cls-2" points="72.94 345.34 54.7 362.18 55.17 362.68 73.57 345.69 73.11 345.18 72.94 345.34"/><polygon class="cls-2" points="356.65 84.29 371 71.04 370.53 70.53 370.37 70.69 356.02 83.94 356.49 84.45 356.65 84.29"/><polygon class="cls-2" points="312.57 25.82 303.33 43.73 303.95 44.05 304.05 43.84 313.28 25.93 312.67 25.62 312.57 25.82"/><polygon class="cls-2" points="126.67 386.28 115.63 407.69 116.25 408.01 127.4 386.39 126.78 386.08 126.67 386.28"/><polygon class="cls-2" points="157.33 398.8 150.38 421.14 151.04 421.34 158.06 398.78 157.41 398.58 157.33 398.8"/><polygon class="cls-2" points="278.01 10.87 271.81 30.82 272.47 31.02 272.54 30.8 278.74 10.86 278.08 10.65 278.01 10.87"/><polygon class="cls-2" points="22.36 223.52 22.12 223.53 0.01 224.58 0.04 225.27 22.38 224.21 22.36 223.52"/><polygon class="cls-2" points="407.09 205.85 407.32 205.92 429.44 204.87 429.41 204.19 429.18 204.2 407.07 205.25 407.09 205.85"/><polygon class="cls-2" points="207.21 407.14 206.76 407.12 206.39 416.56 207.06 416.59 207.44 407.15 207.21 407.14"/><polygon class="cls-2" points="222.76 22.36 223.13 12.98 222.9 12.97 222.46 12.95 222.09 22.33 222.76 22.36"/><polygon class="cls-2" points="156.46 31.18 153.61 22.28 153.39 22.35 152.97 22.49 155.81 31.39 156.46 31.18"/><polygon class="cls-2" points="273.46 398.14 273.04 398.28 273.11 398.5 275.91 407.26 276.55 407.05 273.68 398.07 273.46 398.14"/><polygon class="cls-2" points="304.4 385.14 304 385.34 304.11 385.55 308.4 393.71 309 393.4 304.61 385.03 304.4 385.14"/><polygon class="cls-2" points="125.47 44.12 121.12 35.83 120.91 35.93 120.52 36.14 124.87 44.43 125.47 44.12"/><polygon class="cls-2" points="332.61 366.98 332.27 367.25 338.05 374.73 338.59 374.32 332.8 366.83 332.61 366.98"/><polygon class="cls-2" points="97.2 62.22 91.47 54.81 91.28 54.95 90.93 55.22 96.66 62.63 97.2 62.22"/><polygon class="cls-2" points="72.48 84.94 72.32 84.79 65.56 78.65 65.41 78.82 65.11 79.14 72.03 85.44 72.48 84.94"/><polygon class="cls-2" points="357.26 344.2 356.96 344.53 363.96 350.89 364.41 350.4 357.41 344.03 357.26 344.2"/><polygon class="cls-2" points="385.33 322.92 385.69 322.35 377.71 317.31 377.59 317.51 377.35 317.88 385.33 322.92"/><polygon class="cls-2" points="44.07 106.81 43.83 107.19 51.72 112.18 52.09 111.61 44.19 106.62 44.07 106.81"/><polygon class="cls-2" points="29.95 138.72 29.86 138.94 29.69 139.35 36.37 142.09 36.63 141.46 29.95 138.72"/><polygon class="cls-2" points="392.99 288.2 403.46 292.5 403.72 291.87 393.03 287.49 392.93 287.74 392.78 288.12 392.99 288.2"/><polygon class="cls-2" points="402.83 255.84 413.24 258.11 413.38 257.44 402.97 255.18 402.92 255.41 402.83 255.84"/><polygon class="cls-2" points="18.69 171.53 18.64 171.75 18.55 172.19 26.55 173.93 26.7 173.27 18.69 171.53"/><polygon class="cls-2" points="189.2 23.85 189.19 23.62 187.97 14.59 187.74 14.62 187.3 14.68 188.55 23.94 189.2 23.85"/><polygon class="cls-2" points="240.73 405.56 240.29 405.62 241.55 414.95 242.22 414.86 240.96 405.53 240.73 405.56"/><polygon class="cls-2" points="22.11 206.76 12.97 206.4 12.94 207.07 22.32 207.44 22.34 206.77 22.11 206.76"/><polygon class="cls-2" points="416.58 222.47 416.35 222.46 407.13 222.09 407.1 222.77 416.55 223.14 416.58 222.47"/><polygon class="cls-2" points="407.25 153.62 407.04 152.98 406.82 153.05 398.08 155.84 398.28 156.49 407.25 153.62"/><polygon class="cls-2" points="22.27 275.92 22.48 276.56 31.4 273.71 31.19 273.07 30.97 273.14 22.27 275.92"/><polygon class="cls-2" points="385.36 125.51 393.7 121.13 393.39 120.53 393.19 120.64 385.05 124.91 385.36 125.51"/><polygon class="cls-2" points="44.13 304.04 43.93 304.15 35.82 308.41 36.13 309.01 44.45 304.64 44.13 304.04"/><polygon class="cls-2" points="62.24 332.31 62.06 332.45 54.8 338.07 55.21 338.6 62.65 332.84 62.24 332.31"/><polygon class="cls-2" points="367.27 97.24 367.45 97.1 374.72 91.48 374.31 90.94 374.13 91.08 366.86 96.7 367.27 97.24"/><polygon class="cls-2" points="111.5 377.59 106.61 385.34 107.18 385.7 112.2 377.76 111.63 377.4 111.5 377.59"/><polygon class="cls-2" points="322.21 44.03 317.33 51.76 317.9 52.13 322.91 44.2 322.34 43.84 322.21 44.03"/><polygon class="cls-2" points="84.89 357.25 77.04 365.88 77.53 366.34 85.54 357.53 85.04 357.08 84.89 357.25"/><polygon class="cls-2" points="344.79 72.43 349.28 67.48 348.78 67.03 348.63 67.2 344.13 72.15 344.63 72.6 344.79 72.43"/><polygon class="cls-2" points="290.86 29.94 288.1 36.68 288.72 36.94 291.57 29.99 290.94 29.73 290.86 29.94"/><polygon class="cls-2" points="141.97 393.3 137.79 403.51 138.42 403.76 142.69 393.35 142.06 393.09 141.97 393.3"/><polygon class="cls-2" points="173.64 403.08 171.42 413.25 172.08 413.39 174.34 403 173.69 402.86 173.64 403.08"/><polygon class="cls-2" points="257.29 18.78 255.59 26.58 256.25 26.72 258 18.7 257.34 18.56 257.29 18.78"/><polygon class="cls-2" points="14.67 242.23 23.94 240.98 23.85 240.31 23.62 240.34 14.58 241.56 14.67 242.23"/><polygon class="cls-2" points="405.84 189.21 414.94 187.98 414.85 187.31 414.62 187.34 405.52 188.57 405.61 189.24 405.84 189.21"/><path class="cls-2" d="M147.24,214.73a67.62,67.62,0,1,0,67.62-67.63A67.69,67.69,0,0,0,147.24,214.73Zm1.19,0a66.43,66.43,0,1,1,66.43,66.43A66.51,66.51,0,0,1,148.43,214.73Z"/><path class="cls-2" d="M110,214.73A104.86,104.86,0,1,0,214.86,109.86,105,105,0,0,0,110,214.73Zm1.19,0A103.67,103.67,0,1,1,214.86,318.4,103.79,103.79,0,0,1,111.19,214.73Z"/><path class="cls-2" d="M72.76,214.73c0,78.35,63.75,142.1,142.1,142.1S357,293.08,357,214.73s-63.74-142.1-142.1-142.1S72.76,136.37,72.76,214.73Zm1.19,0C74,137,137.16,73.82,214.86,73.82S355.77,137,355.77,214.73,292.56,355.64,214.86,355.64,74,292.42,74,214.73Z"/><path class="cls-2" d="M35.52,214.73c0,98.89,80.45,179.33,179.34,179.33S394.2,313.62,394.2,214.73,313.75,35.39,214.86,35.39,35.52,115.84,35.52,214.73Zm1.19,0c0-98.23,79.92-178.15,178.15-178.15S393,116.5,393,214.73,313.09,392.87,214.86,392.87,36.71,313,36.71,214.73Z"/><path class="cls-3" d="M130.18,381.58a186.18,186.18,0,0,0,40.17,14.92V381.58Z"/><path class="cls-3" d="M44.91,214.32H27.73v.41a187.36,187.36,0,0,0,4.49,40.81H44.91Z"/><path class="cls-3" d="M32.35,256.13A185.26,185.26,0,0,0,44.91,293V256.13Z"/><path class="cls-3" d="M44.91,172.51H32.53a186.7,186.7,0,0,0-4.79,41.22H44.91Z"/><path class="cls-3" d="M337.6,339.76H296.38V381h4.3a187.39,187.39,0,0,0,36.92-25.12Z"/><path class="cls-3" d="M254.57,381.58v16a185.35,185.35,0,0,0,41.22-14.16v-1.86Z"/><path class="cls-3" d="M296.38,383.15l3.16-1.57h-3.16Z"/><path class="cls-3" d="M212.75,381.58v20.25l2.11,0A186.85,186.85,0,0,0,254,397.73V381.58Z"/><path class="cls-3" d="M296.71,46.47l-.33-.16v.16Z"/><path class="cls-3" d="M296.38,88.29H337.6V73.59a187.79,187.79,0,0,0-39.7-26.53h-1.52Z"/><path class="cls-3" d="M44.91,136.45a185.92,185.92,0,0,0-12.24,35.46H44.91Z"/><path class="cls-3" d="M354,339.76H338.2v15.58A188.38,188.38,0,0,0,354,339.76Z"/><path class="cls-3" d="M254,46.47V31.72a186.85,186.85,0,0,0-39.12-4.13l-2.11,0V46.47Z"/><path class="cls-3" d="M295.79,46.47V46a185.37,185.37,0,0,0-41.22-14.17V46.47Z"/><path class="cls-3" d="M86.72,171.91V130.69h-39q-1.12,2.24-2.19,4.5v36.72Z"/><path class="cls-3" d="M212.16,46.47V27.63a186.67,186.67,0,0,0-41.22,5.18V46.47Z"/><path class="cls-3" d="M170.35,33A185.39,185.39,0,0,0,133,46.47h37.35Z"/><rect class="cls-3" x="129.13" y="339.76" width="41.22" height="41.22"/><path class="cls-3" d="M380,255.54h17.48a186.75,186.75,0,0,0,4.5-40.81c0-.14,0-.27,0-.41H380Z"/><path class="cls-3" d="M381.73,130.1c-.56-1.1-1.14-2.2-1.72-3.29v3.29Z"/><path class="cls-3" d="M380,171.91h17a185.52,185.52,0,0,0-15-41.22h-2Z"/><path class="cls-3" d="M380,213.73h22a187.3,187.3,0,0,0-4.79-41.22H380Z"/><path class="cls-3" d="M380,297.35h2.72a185.61,185.61,0,0,0,14.64-41.22H380Z"/><path class="cls-3" d="M380,302.64c.83-1.55,1.64-3.12,2.42-4.69H380Z"/><path class="cls-3" d="M338.2,298v41.22h16.29a187.91,187.91,0,0,0,24.93-35.41V298Z"/><path class="cls-3" d="M338.2,88.88V130.1h41.22v-4.41a188,188,0,0,0-26.18-36.81Z"/><rect class="cls-3" x="45.5" y="214.32" width="41.22" height="41.22"/><rect class="cls-3" x="87.31" y="297.95" width="41.22" height="41.22"/><rect class="cls-3" x="296.38" y="214.32" width="41.22" height="41.22"/><rect class="cls-3" x="254.57" y="256.13" width="41.22" height="41.22"/><rect class="cls-3" x="254.57" y="214.32" width="41.22" height="41.22"/><rect class="cls-3" x="212.75" y="256.13" width="41.22" height="41.22"/><rect class="cls-3" x="129.13" y="172.51" width="41.22" height="41.22"/><rect class="cls-3" x="129.13" y="130.69" width="41.22" height="41.22"/><rect class="cls-3" x="129.13" y="214.32" width="41.22" height="41.22"/><rect class="cls-3" x="129.13" y="88.88" width="41.22" height="41.22"/><rect class="cls-3" x="87.31" y="214.32" width="41.22" height="41.22"/><rect class="cls-3" x="87.31" y="256.13" width="41.22" height="41.22"/><rect class="cls-3" x="254.57" y="130.69" width="41.22" height="41.22"/><rect class="cls-3" x="170.94" y="88.88" width="41.22" height="41.22"/><rect class="cls-3" x="254.57" y="172.51" width="41.22" height="41.22"/><rect class="cls-3" x="296.38" y="172.51" width="41.22" height="41.22"/><rect class="cls-3" x="212.75" y="297.95" width="41.22" height="41.22"/><path class="cls-3" d="M86.72,78.48q-5,4.72-9.69,9.81h9.69Z"/><rect class="cls-3" x="212.75" y="130.69" width="41.22" height="41.22"/><rect class="cls-3" x="212.75" y="88.88" width="41.22" height="41.22"/><path class="cls-3" d="M352.68,88.29A188,188,0,0,0,338.2,74.12V88.29Z"/><path class="cls-3" d="M86.72,351V339.76h-11Q81,345.6,86.72,351Z"/><rect class="cls-3" x="170.94" y="172.51" width="41.22" height="41.22"/><rect class="cls-3" x="129.13" y="256.13" width="41.22" height="41.22"/><rect class="cls-3" x="170.94" y="130.69" width="41.22" height="41.22"/><rect class="cls-3" x="170.94" y="256.13" width="41.22" height="41.22"/><rect class="cls-3" x="170.94" y="214.32" width="41.22" height="41.22"/><rect class="cls-3" x="212.75" y="214.32" width="41.22" height="41.22"/><rect class="cls-3" x="212.75" y="172.51" width="41.22" height="41.22"/><path class="cls-3" d="M86.72,256.13H45.5v38.14c.49,1,1,2.06,1.49,3.08H86.72Z"/><rect class="cls-3" x="338.2" y="214.32" width="41.22" height="41.22"/><rect class="cls-3" x="338.2" y="172.51" width="41.22" height="41.22"/><rect class="cls-3" x="338.2" y="130.69" width="41.22" height="41.22"/><rect class="cls-3" x="338.2" y="256.13" width="41.22" height="41.22"/><rect class="cls-3" x="296.38" y="130.69" width="41.22" height="41.22"/><rect class="cls-3" x="296.38" y="297.95" width="41.22" height="41.22"/><rect class="cls-3" x="296.38" y="256.13" width="41.22" height="41.22"/><rect class="cls-3" x="129.13" y="297.95" width="41.22" height="41.22"/><path class="cls-3" d="M86.72,88.88H76.48A188.05,188.05,0,0,0,48,130.1H86.72Z"/><path class="cls-3" d="M87.31,339.76v11.76a188,188,0,0,0,41.22,29.2v-41Z"/><path class="cls-3" d="M86.72,298H47.28a187.9,187.9,0,0,0,28,41.22H86.72Z"/><rect class="cls-3" x="296.38" y="88.88" width="41.22" height="41.22"/><path class="cls-3" d="M128.53,88.29V48.73a188.29,188.29,0,0,0-41.22,29.2V88.29Z"/><rect class="cls-3" x="254.57" y="297.95" width="41.22" height="41.22"/><path class="cls-3" d="M170.35,88.29V47.06H131.81l-2.68,1.36V88.29Z"/><rect class="cls-3" x="254.57" y="47.06" width="41.22" height="41.22"/><rect class="cls-3" x="87.31" y="88.88" width="41.22" height="41.22"/><rect class="cls-3" x="170.94" y="47.06" width="41.22" height="41.22"/><rect class="cls-3" x="212.75" y="47.06" width="41.22" height="41.22"/><rect class="cls-3" x="254.57" y="88.88" width="41.22" height="41.22"/><rect class="cls-3" x="170.94" y="297.95" width="41.22" height="41.22"/><rect class="cls-3" x="170.94" y="339.76" width="41.22" height="41.22"/><rect class="cls-3" x="254.57" y="339.76" width="41.22" height="41.22"/><rect class="cls-3" x="87.31" y="130.69" width="41.22" height="41.22"/><rect class="cls-3" x="212.75" y="339.76" width="41.22" height="41.22"/><rect class="cls-3" x="45.5" y="172.51" width="41.22" height="41.22"/><rect class="cls-3" x="87.31" y="172.51" width="41.22" height="41.22"/><path class="cls-3" d="M170.94,381.58v15.06a187.27,187.27,0,0,0,41.22,5.19V381.58Z"/><path class="cls-2" d="M402,213.73h2.21a188.56,188.56,0,0,0-4.74-41.22h-2.26A187.3,187.3,0,0,1,402,213.73Z"/><path class="cls-2" d="M397,171.91h2.28a188.13,188.13,0,0,0-14.82-41.22H382A185.52,185.52,0,0,1,397,171.91Z"/><path class="cls-2" d="M380,302.64v4.6q2.57-4.58,4.9-9.29h-2.48C381.65,299.52,380.84,301.09,380,302.64Z"/><path class="cls-2" d="M44.91,136.45v-5.13A187.26,187.26,0,0,0,30.4,171.91h2.27A185.92,185.92,0,0,1,44.91,136.45Z"/><path class="cls-2" d="M338.2,355.34v2.93a191.28,191.28,0,0,0,18.72-18.51h-3A188.38,188.38,0,0,1,338.2,355.34Z"/><path class="cls-2" d="M87.31,351.52v3a190.28,190.28,0,0,0,37,26.43h4.21v-.26A188,188,0,0,1,87.31,351.52Z"/><path class="cls-2" d="M402,214.73a186.75,186.75,0,0,1-4.5,40.81h2.27a189.29,189.29,0,0,0,4.44-40.81v-.41H402C402,214.46,402,214.59,402,214.73Z"/><path class="cls-2" d="M32.53,172.51H30.26a189.17,189.17,0,0,0-4.73,41.22h2.21A186.7,186.7,0,0,1,32.53,172.51Z"/><path class="cls-2" d="M381.73,130.1h2.48q-2-4-4.2-7.89v4.6C380.59,127.9,381.17,129,381.73,130.1Z"/><path class="cls-2" d="M382.73,297.35h2.47a187.87,187.87,0,0,0,14.43-41.22h-2.26A185.61,185.61,0,0,1,382.73,297.35Z"/><path class="cls-2" d="M254.57,397.6v2.27a188.06,188.06,0,0,0,41.22-14v-2.44A185.35,185.35,0,0,1,254.57,397.6Z"/><path class="cls-2" d="M45.5,297.35H47c-.51-1-1-2.05-1.49-3.08Z"/><path class="cls-2" d="M170.94,396.64v2.28A189.14,189.14,0,0,0,212.16,404v-2.21A187.27,187.27,0,0,1,170.94,396.64Z"/><path class="cls-2" d="M214.86,401.86l-2.11,0v2.22l2.11,0A189.62,189.62,0,0,0,254,400v-2.27A186.85,186.85,0,0,1,214.86,401.86Z"/><path class="cls-2" d="M357.45,339.17a190.63,190.63,0,0,0,22-30.87v-4.54a187.91,187.91,0,0,1-24.93,35.41Z"/><path class="cls-2" d="M125.42,381.58c1,.55,2.07,1.11,3.11,1.64v-1.64Z"/><path class="cls-2" d="M296.38,383.15v2.45q4-1.92,7.92-4h-4.76Z"/><path class="cls-2" d="M44.91,293a185.26,185.26,0,0,1-12.56-36.87H30.09a187.35,187.35,0,0,0,14.43,41.22h.39Z"/><path class="cls-2" d="M129.13,47.06v1.36l2.68-1.36Z"/><path class="cls-2" d="M27.73,214.73v-.41H25.52c0,.14,0,.27,0,.41A189.29,189.29,0,0,0,30,255.54h2.26A187.36,187.36,0,0,1,27.73,214.73Z"/><path class="cls-2" d="M44.81,298a1.62,1.62,0,0,0,.1.18V298Z"/><path class="cls-2" d="M75.23,339.17A187.9,187.9,0,0,1,47.28,298H45.5v1.37a189.8,189.8,0,0,0,26.77,39.85Z"/><path class="cls-2" d="M130.18,381.58h-1.05v1.94a187.8,187.8,0,0,0,41.22,15.26V396.5A186.18,186.18,0,0,1,130.18,381.58Z"/><path class="cls-2" d="M45.5,130.69v4.5q1.06-2.26,2.19-4.5Z"/><path class="cls-2" d="M337.6,355.86A187.39,187.39,0,0,1,300.68,381h4.72a190.3,190.3,0,0,0,32.2-22.2Z"/><path class="cls-2" d="M337.6,70.68a190,190,0,0,0-34.84-23.62H297.9a187.79,187.79,0,0,1,39.7,26.53Z"/><path class="cls-2" d="M75.76,339.76h-3A188.85,188.85,0,0,0,86.72,354v-3Q81,345.6,75.76,339.76Z"/><path class="cls-2" d="M296.71,46.47h4.93q-2.61-1.35-5.26-2.62v2.46Z"/><path class="cls-2" d="M295.79,46V43.57a188.06,188.06,0,0,0-41.22-14v2.27A185.37,185.37,0,0,1,295.79,46Z"/><path class="cls-2" d="M128.53,46.23l-.45.24h.45Z"/><path class="cls-2" d="M133,46.47A185.39,185.39,0,0,1,170.35,33V30.68a187.27,187.27,0,0,0-41.22,15.25v.54Z"/><path class="cls-2" d="M353.24,88.88a188,188,0,0,1,26.18,36.81v-4.54A190.92,190.92,0,0,0,356.2,88.88Z"/><path class="cls-2" d="M212.16,27.63V25.41a189.14,189.14,0,0,0-41.22,5.12v2.28A186.67,186.67,0,0,1,212.16,27.63Z"/><path class="cls-2" d="M214.86,27.59A186.85,186.85,0,0,1,254,31.72V29.45a189.62,189.62,0,0,0-39.12-4.07l-2.11,0v2.21Z"/><path class="cls-2" d="M86.72,78.48v-3q-6.63,6.11-12.67,12.83h3Q81.69,83.21,86.72,78.48Z"/><path class="cls-2" d="M87.31,77.93a188.29,188.29,0,0,1,41.22-29.2V47.06H127A190.19,190.19,0,0,0,87.31,74.91Z"/><path class="cls-2" d="M73.52,88.88a190,190,0,0,0-28,41.22H48a188.05,188.05,0,0,1,28.5-41.22Z"/><path class="cls-2" d="M352.68,88.29h3A190.64,190.64,0,0,0,338.2,71.18v2.94A188,188,0,0,1,352.68,88.29Z"/><path class="cls-2" d="M45.5,256.13h-.59V293c.19.42.39.84.59,1.27Z"/><rect class="cls-2" x="44.91" y="214.32" width="0.59" height="41.22"/><path class="cls-2" d="M45.5,171.91V135.19c-.2.42-.4.84-.59,1.26v35.46Z"/><rect class="cls-2" x="44.91" y="172.51" width="0.59" height="41.22"/><path class="cls-2" d="M45.5,135.19v-4.5h-.28c-.11.21-.21.42-.31.63v5.13C45.1,136,45.3,135.61,45.5,135.19Z"/><path class="cls-2" d="M45.5,294.27c-.2-.43-.4-.85-.59-1.27v4.35h.59Z"/><path class="cls-2" d="M45.5,298h-.59v.18c.19.4.39.8.59,1.19Z"/><rect class="cls-2" x="86.72" y="214.32" width="0.59" height="41.22"/><rect class="cls-2" x="86.72" y="130.69" width="0.59" height="41.22"/><rect class="cls-2" x="86.72" y="88.88" width="0.59" height="41.22"/><path class="cls-2" d="M86.72,88.29h.59V77.93l-.59.55Z"/><rect class="cls-2" x="86.72" y="172.51" width="0.59" height="41.22"/><rect class="cls-2" x="86.72" y="297.95" width="0.59" height="41.22"/><rect class="cls-2" x="86.72" y="256.13" width="0.59" height="41.22"/><path class="cls-2" d="M86.72,339.76V351l.59.55V339.76Z"/><path class="cls-2" d="M86.72,354l.59.56v-3l-.59-.55Z"/><path class="cls-2" d="M87.31,77.93v-3l-.59.55v3Z"/><rect class="cls-2" x="128.53" y="256.13" width="0.59" height="41.22"/><rect class="cls-2" x="128.53" y="214.32" width="0.59" height="41.22"/><path class="cls-2" d="M128.53,339.76v41l.5.26h.1V339.76Z"/><rect class="cls-2" x="128.53" y="297.95" width="0.59" height="41.22"/><rect class="cls-2" x="128.53" y="88.88" width="0.59" height="41.22"/><rect class="cls-2" x="128.53" y="130.69" width="0.59" height="41.22"/><rect class="cls-2" x="128.53" y="172.51" width="0.59" height="41.22"/><path class="cls-2" d="M129.13,88.29V48.42l-.6.31V88.29Z"/><path class="cls-2" d="M128.53,381.58v1.64l.6.3v-1.94Z"/><path class="cls-2" d="M128.53,380.72V381h.5Z"/><path class="cls-2" d="M129.13,46.47v-.54l-.6.3v.24Z"/><path class="cls-2" d="M129.13,48.42V47.06h-.6v1.67Z"/><rect class="cls-2" x="170.35" y="47.06" width="0.59" height="41.22"/><path class="cls-2" d="M170.35,381.58V396.5l.59.14V381.58Z"/><rect class="cls-2" x="170.35" y="172.51" width="0.59" height="41.22"/><rect class="cls-2" x="170.35" y="214.32" width="0.59" height="41.22"/><rect class="cls-2" x="170.35" y="339.76" width="0.59" height="41.22"/><rect class="cls-2" x="170.35" y="256.13" width="0.59" height="41.22"/><rect class="cls-2" x="170.35" y="88.88" width="0.59" height="41.22"/><path class="cls-2" d="M170.94,46.47V32.81l-.59.15V46.47Z"/><rect class="cls-2" x="170.35" y="297.95" width="0.59" height="41.22"/><rect class="cls-2" x="170.35" y="130.69" width="0.59" height="41.22"/><path class="cls-2" d="M170.35,396.5v2.28l.59.14v-2.28Z"/><path class="cls-2" d="M170.94,32.81V30.53l-.59.15V33Z"/><path class="cls-2" d="M212.75,46.47V27.62h-.59V46.47Z"/><rect class="cls-2" x="212.16" y="47.06" width="0.59" height="41.22"/><rect class="cls-2" x="212.16" y="88.88" width="0.59" height="41.22"/><path class="cls-2" d="M212.16,381.58v20.25h.59V381.58Z"/><rect class="cls-2" x="212.16" y="297.95" width="0.59" height="41.22"/><rect class="cls-2" x="212.16" y="172.51" width="0.59" height="41.22"/><rect class="cls-2" x="212.16" y="339.76" width="0.59" height="41.22"/><rect class="cls-2" x="212.16" y="214.32" width="0.59" height="41.22"/><rect class="cls-2" x="212.16" y="256.13" width="0.59" height="41.22"/><rect class="cls-2" x="212.16" y="130.69" width="0.59" height="41.22"/><path class="cls-2" d="M212.16,401.83V404h.59v-2.22Z"/><path class="cls-2" d="M212.75,27.62V25.41h-.59v2.22Z"/><path class="cls-2" d="M254.57,46.47V31.85l-.59-.13V46.47Z"/><rect class="cls-2" x="253.98" y="339.76" width="0.59" height="41.22"/><rect class="cls-2" x="253.98" y="130.69" width="0.59" height="41.22"/><rect class="cls-2" x="253.98" y="88.88" width="0.59" height="41.22"/><rect class="cls-2" x="253.98" y="47.06" width="0.59" height="41.22"/><rect class="cls-2" x="253.98" y="256.13" width="0.59" height="41.22"/><rect class="cls-2" x="253.98" y="297.95" width="0.59" height="41.22"/><path class="cls-2" d="M254,381.58v16.15l.59-.13v-16Z"/><rect class="cls-2" x="253.98" y="214.32" width="0.59" height="41.22"/><rect class="cls-2" x="253.98" y="172.51" width="0.59" height="41.22"/><path class="cls-2" d="M254.57,31.85V29.58l-.59-.13v2.27Z"/><path class="cls-2" d="M254,397.73V400l.59-.13V397.6Z"/><rect class="cls-2" x="295.79" y="88.88" width="0.59" height="41.22"/><rect class="cls-2" x="295.79" y="172.51" width="0.59" height="41.22"/><rect class="cls-2" x="295.79" y="130.69" width="0.59" height="41.22"/><rect class="cls-2" x="295.79" y="339.76" width="0.59" height="41.22"/><rect class="cls-2" x="295.79" y="297.95" width="0.59" height="41.22"/><rect class="cls-2" x="295.79" y="256.13" width="0.59" height="41.22"/><rect class="cls-2" x="295.79" y="47.06" width="0.59" height="41.22"/><path class="cls-2" d="M295.79,381.58v1.86l.59-.29v-1.57Z"/><path class="cls-2" d="M296.38,46.47v-.16l-.59-.29v.45Z"/><rect class="cls-2" x="295.79" y="214.32" width="0.59" height="41.22"/><path class="cls-2" d="M295.79,383.44v2.44l.59-.28v-2.45Z"/><path class="cls-2" d="M296.38,46.31V43.85l-.59-.28V46Z"/><rect class="cls-2" x="337.6" y="214.32" width="0.59" height="41.22"/><rect class="cls-2" x="337.6" y="172.51" width="0.59" height="41.22"/><rect class="cls-2" x="337.6" y="256.13" width="0.59" height="41.22"/><path class="cls-2" d="M338.2,339.76h-.6v16.1l.6-.52Z"/><rect class="cls-2" x="337.6" y="88.88" width="0.59" height="41.22"/><rect class="cls-2" x="337.6" y="297.95" width="0.59" height="41.22"/><rect class="cls-2" x="337.6" y="130.69" width="0.59" height="41.22"/><path class="cls-2" d="M338.2,74.12l-.6-.53v14.7h.6Z"/><path class="cls-2" d="M337.6,355.86v2.92l.6-.51v-2.93Z"/><path class="cls-2" d="M337.6,73.59l.6.53V71.18l-.6-.5Z"/><rect class="cls-2" x="379.42" y="256.13" width="0.59" height="41.22"/><rect class="cls-2" x="379.42" y="214.32" width="0.59" height="41.22"/><path class="cls-2" d="M380,130.1v-3.29l-.59-1.12v4.41Z"/><rect class="cls-2" x="379.42" y="172.51" width="0.59" height="41.22"/><rect class="cls-2" x="379.42" y="130.69" width="0.59" height="41.22"/><path class="cls-2" d="M379.42,298v5.81l.59-1.12V298Z"/><path class="cls-2" d="M379.42,125.69l.59,1.12v-4.6l-.59-1.06Z"/><path class="cls-2" d="M379.42,303.76v4.54l.59-1.06v-4.6Z"/><rect class="cls-2" x="170.94" y="46.47" width="41.22" height="0.59"/><rect class="cls-2" x="254.57" y="46.47" width="41.22" height="0.59"/><rect class="cls-2" x="212.75" y="46.47" width="41.22" height="0.59"/><path class="cls-2" d="M296.38,47.06h1.52l-1.19-.59h-.33Z"/><path class="cls-2" d="M170.35,47.06v-.59H133l-1.19.59Z"/><path class="cls-2" d="M128.53,47.06v-.59h-.45l-1.12.59Z"/><path class="cls-2" d="M131.81,47.06l1.19-.59h-3.87v.59Z"/><path class="cls-2" d="M297.9,47.06h4.86l-1.12-.59h-4.93Z"/><rect class="cls-2" x="128.53" y="46.47" width="0.59" height="0.59"/><rect class="cls-2" x="170.35" y="46.47" width="0.59" height="0.59"/><rect class="cls-2" x="212.16" y="46.47" width="0.59" height="0.59"/><rect class="cls-2" x="253.98" y="46.47" width="0.59" height="0.59"/><rect class="cls-2" x="295.79" y="46.47" width="0.59" height="0.59"/><rect class="cls-2" x="296.38" y="88.29" width="41.22" height="0.59"/><rect class="cls-2" x="87.31" y="88.29" width="41.22" height="0.59"/><rect class="cls-2" x="212.75" y="88.29" width="41.22" height="0.59"/><path class="cls-2" d="M77,88.29l-.55.59H86.72v-.59Z"/><rect class="cls-2" x="254.57" y="88.29" width="41.22" height="0.59"/><rect class="cls-2" x="170.94" y="88.29" width="41.22" height="0.59"/><path class="cls-2" d="M338.2,88.29v.59h15c-.19-.2-.37-.4-.56-.59Z"/><rect class="cls-2" x="129.13" y="88.29" width="41.22" height="0.59"/><path class="cls-2" d="M353.24,88.88h3c-.18-.2-.35-.4-.53-.59h-3C352.87,88.48,353.05,88.68,353.24,88.88Z"/><path class="cls-2" d="M77,88.29h-3c-.18.19-.35.39-.53.59h3Z"/><rect class="cls-2" x="86.72" y="88.29" width="0.59" height="0.59"/><rect class="cls-2" x="128.53" y="88.29" width="0.59" height="0.59"/><rect class="cls-2" x="170.35" y="88.29" width="0.59" height="0.59"/><rect class="cls-2" x="212.16" y="88.29" width="0.59" height="0.59"/><rect class="cls-2" x="253.98" y="88.29" width="0.59" height="0.59"/><rect class="cls-2" x="295.79" y="88.29" width="0.59" height="0.59"/><rect class="cls-2" x="337.6" y="88.29" width="0.59" height="0.59"/><rect class="cls-2" x="87.31" y="130.1" width="41.22" height="0.59"/><rect class="cls-2" x="338.2" y="130.1" width="41.22" height="0.59"/><rect class="cls-2" x="296.38" y="130.1" width="41.22" height="0.59"/><rect class="cls-2" x="254.57" y="130.1" width="41.22" height="0.59"/><path class="cls-2" d="M45.5,130.1v0Z"/><path class="cls-2" d="M380,130.69h2l-.3-.59H380Z"/><rect class="cls-2" x="129.13" y="130.1" width="41.22" height="0.59"/><path class="cls-2" d="M48,130.1c-.1.2-.19.4-.29.59h39v-.59Z"/><rect class="cls-2" x="212.75" y="130.1" width="41.22" height="0.59"/><rect class="cls-2" x="170.94" y="130.1" width="41.22" height="0.59"/><path class="cls-2" d="M382,130.69h2.47c-.1-.19-.2-.39-.29-.59h-2.48Z"/><path class="cls-2" d="M48,130.1H45.51v.59h2.19C47.79,130.5,47.88,130.3,48,130.1Z"/><path class="cls-2" d="M45.22,130.69h.28v-.56Z"/><rect class="cls-2" x="86.72" y="130.1" width="0.59" height="0.59"/><rect class="cls-2" x="128.53" y="130.1" width="0.59" height="0.59"/><rect class="cls-2" x="170.35" y="130.1" width="0.59" height="0.59"/><rect class="cls-2" x="212.16" y="130.1" width="0.59" height="0.59"/><rect class="cls-2" x="253.98" y="130.1" width="0.59" height="0.59"/><rect class="cls-2" x="295.79" y="130.1" width="0.59" height="0.59"/><rect class="cls-2" x="337.6" y="130.1" width="0.59" height="0.59"/><rect class="cls-2" x="379.42" y="130.1" width="0.59" height="0.59"/><rect class="cls-2" x="45.5" y="171.91" width="41.22" height="0.59"/><rect class="cls-2" x="212.75" y="171.91" width="41.22" height="0.59"/><rect class="cls-2" x="129.13" y="171.91" width="41.22" height="0.59"/><rect class="cls-2" x="296.38" y="171.91" width="41.22" height="0.59"/><rect class="cls-2" x="87.31" y="171.91" width="41.22" height="0.59"/><path class="cls-2" d="M380,172.51h17.18l-.15-.6H380Z"/><path class="cls-2" d="M44.91,171.91H32.67c0,.2-.09.4-.14.6H44.91Z"/><rect class="cls-2" x="170.94" y="171.91" width="41.22" height="0.59"/><rect class="cls-2" x="254.57" y="171.91" width="41.22" height="0.59"/><rect class="cls-2" x="338.2" y="171.91" width="41.22" height="0.59"/><path class="cls-2" d="M32.67,171.91H30.4c0,.2-.09.4-.14.6h2.27C32.58,172.31,32.63,172.11,32.67,171.91Z"/><path class="cls-2" d="M397.19,172.51h2.26c0-.2-.08-.4-.13-.6H397Z"/><rect class="cls-2" x="44.91" y="171.91" width="0.59" height="0.59"/><rect class="cls-2" x="86.72" y="171.91" width="0.59" height="0.59"/><rect class="cls-2" x="128.53" y="171.91" width="0.59" height="0.59"/><rect class="cls-2" x="170.35" y="171.91" width="0.59" height="0.59"/><rect class="cls-2" x="212.16" y="171.91" width="0.59" height="0.59"/><rect class="cls-2" x="253.98" y="171.91" width="0.59" height="0.59"/><rect class="cls-2" x="295.79" y="171.91" width="0.59" height="0.59"/><rect class="cls-2" x="337.6" y="171.91" width="0.59" height="0.59"/><rect class="cls-2" x="379.42" y="171.91" width="0.59" height="0.59"/><rect class="cls-2" x="87.31" y="213.73" width="41.22" height="0.59"/><rect class="cls-2" x="129.13" y="213.73" width="41.22" height="0.59"/><rect class="cls-2" x="254.57" y="213.73" width="41.22" height="0.59"/><rect class="cls-2" x="296.38" y="213.73" width="41.22" height="0.59"/><rect class="cls-2" x="170.94" y="213.73" width="41.22" height="0.59"/><rect class="cls-2" x="212.75" y="213.73" width="41.22" height="0.59"/><path class="cls-2" d="M44.91,213.73H27.74c0,.2,0,.39,0,.59H44.91Z"/><rect class="cls-2" x="45.5" y="213.73" width="41.22" height="0.59"/><path class="cls-2" d="M380,214.32h22v-.59H380Z"/><rect class="cls-2" x="338.2" y="213.73" width="41.22" height="0.59"/><path class="cls-2" d="M402,214.32h2.22c0-.2,0-.39,0-.59H402Z"/><path class="cls-2" d="M27.74,213.73H25.53c0,.2,0,.39,0,.59h2.21C27.73,214.12,27.74,213.93,27.74,213.73Z"/><rect class="cls-2" x="44.91" y="213.73" width="0.59" height="0.59"/><rect class="cls-2" x="86.72" y="213.73" width="0.59" height="0.59"/><rect class="cls-2" x="128.53" y="213.73" width="0.59" height="0.59"/><rect class="cls-2" x="170.35" y="213.73" width="0.59" height="0.59"/><rect class="cls-2" x="212.16" y="213.73" width="0.59" height="0.59"/><rect class="cls-2" x="253.98" y="213.73" width="0.59" height="0.59"/><rect class="cls-2" x="295.79" y="213.73" width="0.59" height="0.59"/><rect class="cls-2" x="337.6" y="213.73" width="0.59" height="0.59"/><rect class="cls-2" x="379.42" y="213.73" width="0.59" height="0.59"/><rect class="cls-2" x="45.5" y="255.54" width="41.22" height="0.59"/><rect class="cls-2" x="170.94" y="255.54" width="41.22" height="0.59"/><rect class="cls-2" x="212.75" y="255.54" width="41.22" height="0.59"/><rect class="cls-2" x="338.2" y="255.54" width="41.22" height="0.59"/><rect class="cls-2" x="129.13" y="255.54" width="41.22" height="0.59"/><path class="cls-2" d="M44.91,255.54H32.22c.05.2.09.4.13.59H44.91Z"/><rect class="cls-2" x="254.57" y="255.54" width="41.22" height="0.59"/><rect class="cls-2" x="87.31" y="255.54" width="41.22" height="0.59"/><path class="cls-2" d="M380,256.13h17.36l.12-.59H380Z"/><rect class="cls-2" x="296.38" y="255.54" width="41.22" height="0.59"/><path class="cls-2" d="M397.37,256.13h2.26c.05-.19.09-.39.13-.59h-2.27Z"/><path class="cls-2" d="M32.22,255.54H30c0,.2.08.4.13.59h2.26C32.31,255.94,32.27,255.74,32.22,255.54Z"/><rect class="cls-2" x="44.91" y="255.54" width="0.59" height="0.59"/><rect class="cls-2" x="86.72" y="255.54" width="0.59" height="0.59"/><rect class="cls-2" x="128.53" y="255.54" width="0.59" height="0.59"/><rect class="cls-2" x="170.35" y="255.54" width="0.59" height="0.59"/><rect class="cls-2" x="212.16" y="255.54" width="0.59" height="0.59"/><rect class="cls-2" x="253.98" y="255.54" width="0.59" height="0.59"/><rect class="cls-2" x="295.79" y="255.54" width="0.59" height="0.59"/><rect class="cls-2" x="337.6" y="255.54" width="0.59" height="0.59"/><rect class="cls-2" x="379.42" y="255.54" width="0.59" height="0.59"/><rect class="cls-2" x="254.57" y="297.35" width="41.22" height="0.59"/><rect class="cls-2" x="170.94" y="297.35" width="41.22" height="0.59"/><rect class="cls-2" x="296.38" y="297.35" width="41.22" height="0.59"/><rect class="cls-2" x="338.2" y="297.35" width="41.22" height="0.59"/><path class="cls-2" d="M380,298h2.42l.3-.6H380Z"/><rect class="cls-2" x="129.13" y="297.35" width="41.22" height="0.59"/><rect class="cls-2" x="212.75" y="297.35" width="41.22" height="0.59"/><path class="cls-2" d="M86.72,297.35H47c.1.2.2.4.29.6H86.72Z"/><rect class="cls-2" x="87.31" y="297.35" width="41.22" height="0.59"/><path class="cls-2" d="M382.43,298h2.48c.09-.2.19-.4.29-.6h-2.47Z"/><path class="cls-2" d="M44.91,297.35h-.39c.09.2.2.4.29.6h.1Z"/><path class="cls-2" d="M47,297.35H45.5v.6h1.78C47.19,297.75,47.09,297.55,47,297.35Z"/><rect class="cls-2" x="44.91" y="297.35" width="0.59" height="0.59"/><rect class="cls-2" x="86.72" y="297.35" width="0.59" height="0.59"/><rect class="cls-2" x="128.53" y="297.35" width="0.59" height="0.59"/><rect class="cls-2" x="170.35" y="297.35" width="0.59" height="0.59"/><rect class="cls-2" x="212.16" y="297.35" width="0.59" height="0.59"/><rect class="cls-2" x="253.98" y="297.35" width="0.59" height="0.59"/><rect class="cls-2" x="295.79" y="297.35" width="0.59" height="0.59"/><rect class="cls-2" x="337.6" y="297.35" width="0.59" height="0.59"/><rect class="cls-2" x="379.42" y="297.35" width="0.59" height="0.59"/><rect class="cls-2" x="87.31" y="339.17" width="41.22" height="0.59"/><path class="cls-2" d="M354,339.76c.18-.19.35-.39.53-.59H338.2v.59Z"/><rect class="cls-2" x="296.38" y="339.17" width="41.22" height="0.59"/><rect class="cls-2" x="212.75" y="339.17" width="41.22" height="0.59"/><rect class="cls-2" x="254.57" y="339.17" width="41.22" height="0.59"/><rect class="cls-2" x="129.13" y="339.17" width="41.22" height="0.59"/><rect class="cls-2" x="170.94" y="339.17" width="41.22" height="0.59"/><path class="cls-2" d="M86.72,339.76v-.59H75.23c.18.2.35.4.53.59Z"/><path class="cls-2" d="M75.23,339.17h-3l.53.59h3C75.58,339.57,75.41,339.37,75.23,339.17Z"/><path class="cls-2" d="M356.92,339.76c.17-.2.35-.39.53-.59h-3c-.18.2-.35.4-.53.59Z"/><rect class="cls-2" x="86.72" y="339.17" width="0.59" height="0.59"/><rect class="cls-2" x="128.53" y="339.17" width="0.59" height="0.59"/><rect class="cls-2" x="170.35" y="339.17" width="0.59" height="0.59"/><rect class="cls-2" x="212.16" y="339.17" width="0.59" height="0.59"/><rect class="cls-2" x="253.98" y="339.17" width="0.59" height="0.59"/><rect class="cls-2" x="295.79" y="339.17" width="0.59" height="0.59"/><rect class="cls-2" x="337.6" y="339.17" width="0.59" height="0.59"/><rect class="cls-2" x="170.94" y="380.98" width="41.22" height="0.59"/><rect class="cls-2" x="212.75" y="380.98" width="41.22" height="0.59"/><rect class="cls-2" x="254.57" y="380.98" width="41.22" height="0.59"/><path class="cls-2" d="M296.38,381.58h3.16l1.14-.6h-4.3Z"/><path class="cls-2" d="M170.35,381H129.13v0l1.05.55h40.17Z"/><path class="cls-2" d="M129.13,381.58h1.05l-1.05-.55Z"/><path class="cls-2" d="M300.68,381l-1.14.6h4.76l1.1-.6Z"/><path class="cls-2" d="M128.53,381h-4.21l1.1.6h3.11Z"/><path class="cls-2" d="M129.13,381v0H129Z"/><path class="cls-2" d="M129,381h-.5v.6h.6V381Z"/><rect class="cls-2" x="170.35" y="380.98" width="0.59" height="0.59"/><rect class="cls-2" x="212.16" y="380.98" width="0.59" height="0.59"/><rect class="cls-2" x="253.98" y="380.98" width="0.59" height="0.59"/><rect class="cls-2" x="295.79" y="380.98" width="0.59" height="0.59"/></g></g></g></svg>